<?xml version="1.0" encoding="UTF-8" standalone="no"?>
<!DOCTYPE svg PUBLIC "-//W3C//DTD SVG 1.1//EN" "http://www.w3.org/Graphics/SVG/1.1/DTD/svg11.dtd">
<!-- Created with Vectornator (http://vectornator.io/) -->
<svg height="100%" stroke-miterlimit="10" style="fill-rule:nonzero;clip-rule:evenodd;stroke-linecap:round;stroke-linejoin:round;" version="1.1" viewBox="98.4781 61.0061 465.043 271.277" width="100%" xml:space="preserve" xmlns="http://www.w3.org/2000/svg" xmlns:vectornator="http://vectornator.io" xmlns:xlink="http://www.w3.org/1999/xlink">
<defs>
<filter color-interpolation-filters="sRGB" filterUnits="userSpaceOnUse" height="53.1038" id="Filter" width="54.7572" x="345.726" y="118.632">
<feGaussianBlur in="SourceGraphic" result="Blur" stdDeviation="4.94186"/>
</filter>
</defs>
<clipPath id="ArtboardFrame">
<rect height="271.277" width="465.043" x="98.4781" y="61.0061"/>
</clipPath>
<g clip-path="url(#ArtboardFrame)" id="Layer" vectornator:layerName="Layer">
<g opacity="1" vectornator:layerName="Group 3">
<path d="M404.163 304.946C404.163 304.946 495.223 302.995 534.766 296.284C544.983 294.55 558.949 277.79 559.842 265.198C560.735 252.605 559.508 244.811 548.022 243.622C542.207 243.019 534.646 253.456 534.646 253.456C534.646 253.456 532.784 242.382 521.812 243.785C511.574 245.094 512.52 254.848 512.52 254.848L443.012 247.823C443.012 247.823 438.33 226.621 416.964 223.742C399.207 221.348 391.87 241.576 391.87 241.576C391.87 241.576 384.45 222.418 362.396 227.023C337.578 232.205 344.378 249.248 344.378 249.248C344.378 249.248 245.364 260.048 193.046 257.161C140.728 254.275 135.837 249.83 131.561 239.065C127.286 228.301 131.117 227.591 136.126 219.286C141.134 210.981 147.148 199.745 141.569 199.301C135.99 198.857 125.602 204.832 113.811 217.511C102.019 230.19 99.2298 236.973 104.428 256.562C109.627 276.151 114.762 283.125 134.604 295.867C154.447 308.609 183.798 307.532 183.798 307.532C183.798 307.532 177.868 330.053 193.29 328.624C209.913 327.083 204.085 309.56 204.085 309.56L217.271 308.799C217.271 308.799 209.411 328.427 232.556 328.835C243.35 329.026 239.079 309.814 239.079 309.814L348.625 304.996C348.625 304.996 346.621 327.743 360.479 326.766C375.026 325.74 370.686 306.01 370.686 306.01L386.408 305.249C386.408 305.249 385.856 325.995 397.876 323.957C411.288 321.683 404.163 304.946 404.163 304.946Z" fill="#0e8335" fill-rule="nonzero" opacity="1" stroke="#0d4018" stroke-linecap="butt" stroke-linejoin="round" stroke-width="6.89346" vectornator:layerName="Curve 7"/>
<g opacity="1" vectornator:layerName="Group 1">
<path d="M404.285 248.972C404.285 240.64 408.763 233.886 414.286 233.886C419.81 233.886 424.287 240.64 424.287 248.972C424.287 257.303 419.81 264.057 414.286 264.057C408.763 264.057 404.285 257.303 404.285 248.972Z" fill="#b0d4bc" fill-rule="nonzero" opacity="1" stroke="none" vectornator:layerName="Oval 4"/>
<path d="M417.428 248.972C417.428 241.469 416.021 235.387 414.286 235.387C412.551 235.387 411.145 241.469 411.145 248.972C411.145 256.475 412.551 262.557 414.286 262.557C416.021 262.557 417.428 256.475 417.428 248.972Z" fill="#38b283" fill-rule="nonzero" opacity="1" stroke="none" vectornator:layerName="Oval 5"/>
</g>
<g opacity="1" vectornator:layerName="Group 2">
<path d="M358.081 248.972C358.081 240.64 362.683 233.886 368.36 233.886C374.037 233.886 378.639 240.64 378.639 248.972C378.639 257.303 374.037 264.057 368.36 264.057C362.683 264.057 358.081 257.303 358.081 248.972Z" fill="#b0d4bc" fill-rule="nonzero" opacity="1" stroke="none" vectornator:layerName="Oval 4"/>
<path d="M371.589 248.972C371.589 241.469 370.143 235.387 368.36 235.387C366.577 235.387 365.131 241.469 365.131 248.972C365.131 256.475 366.577 262.557 368.36 262.557C370.143 262.557 371.589 256.475 371.589 248.972Z" fill="#38b283" fill-rule="nonzero" opacity="1" stroke="none" vectornator:layerName="Oval 5"/>
</g>
<path d="M176.274 144.897L194.555 134.089L225.128 126.827L321.501 129.323L349.336 100.665L381.817 92.3221L440.543 97.7453L464.22 117.497L457.45 169.735L442.341 195.545L378.758 197.897L354.673 234.703L360.821 277.21L352.171 291.587L334.943 288.315L316.77 253.284L230.612 259.885L207.875 295.939L188.021 289.124L190.012 244.689L165.42 218.258L160.69 176.888L176.274 144.897Z" fill="#e5aa79" fill-rule="nonzero" opacity="1" stroke="none" vectornator:layerName="Rectangle 1"/>
<path d="M424.287 92.3221L464.22 114.385L451.762 194.131L424.984 199.278L424.287 92.3221Z" fill="#946f71" fill-rule="nonzero" opacity="1" stroke="none" vectornator:layerName="Rectangle 2"/>
<path d="M342.62 76.648L374.713 65.547L390.298 89.8824C390.298 89.8824 370.145 96.3436 363.222 98.7804C356.299 101.217 347.16 98.7804 347.16 98.7804L342.62 76.648Z" fill="#8e5d5f" fill-rule="nonzero" opacity="1" stroke="none" vectornator:layerName="Rectangle 3"/>
<path d="M358.081 145.184C358.081 137.343 364.807 130.987 373.104 130.987C381.402 130.987 388.128 137.343 388.128 145.184C388.128 153.025 381.402 159.381 373.104 159.381C364.807 159.381 358.081 153.025 358.081 145.184Z" fill="#e1857e" fill-rule="nonzero" filter="url(#Filter)" opacity="1" stroke="none" vectornator:blur="9.88372" vectornator:layerName="Oval 1"/>
<path d="M438.349 120.61C438.868 118.655 440.874 117.49 442.83 118.009L461.496 122.966C463.451 123.485 464.616 125.491 464.097 127.446L464.097 127.446C463.577 129.401 461.571 130.566 459.616 130.047L440.949 125.09C438.994 124.571 437.83 122.565 438.349 120.61L438.349 120.61Z" fill="#6f5c5d" fill-rule="nonzero" opacity="1" stroke="none" vectornator:layerName="Rectangle 5"/>
<path d="M463.713 116.765C456.363 107.063 439.204 96.4641 420.094 92.6622C400.984 88.8602 373.244 94.0761 373.244 94.0761C373.244 94.0761 370.069 75.6289 359.566 71.952C354.962 70.3398 349.53 71.3304 344.547 75.2774C337.095 81.1799 349.742 99.4593 349.742 99.4593C349.742 99.4593 341.1 103.322 333.376 113.466C324.934 124.553 321.713 129.303 321.713 129.303C321.713 129.303 299.14 131.016 289.593 129.418C282.121 128.168 178.354 107.641 164.078 166.689C147.967 233.325 194.555 243.049 194.555 243.049C194.555 243.049 184.528 266.411 186.311 282.758C187.728 295.739 200.219 298.381 210.045 293.945C219.871 289.509 229.357 259.637 229.357 259.637C229.357 259.637 242.39 260.349 267.661 259.5C292.931 258.651 318.281 251.799 318.281 251.799C318.281 251.799 324.954 278.746 333.843 285.888C342.733 293.03 347.176 292.712 354.418 289.016C361.659 285.321 360.651 279.128 361.899 270.638C363.148 262.148 354.418 234.949 354.418 234.949C354.418 234.949 353.959 236.354 364.774 217.529C378.161 194.225 381.268 199.32 381.268 199.32C381.268 199.32 435.321 204.791 449.155 190.167C455.045 183.941 466.798 120.838 463.713 116.765Z" fill="none" opacity="1" stroke="#634b4c" stroke-linecap="butt" stroke-linejoin="round" stroke-width="6.89346" vectornator:layerName="Curve 1"/>
<path d="M376.049 119.075C376.508 116.485 378.979 114.757 381.569 115.216L396.854 117.922C399.444 118.381 401.172 120.852 400.713 123.442L400.208 126.297C399.749 128.887 397.278 130.615 394.688 130.156L379.403 127.45C376.813 126.991 375.085 124.52 375.544 121.93L376.049 119.075Z" fill="#81696a" fill-rule="nonzero" opacity="1" stroke="none" vectornator:layerName="Rectangle 4"/>
<path d="M361.2 73.7224C361.705 71.3657 368.61 61.1282 375.47 65.547C382.33 69.9658 390.298 92.3221 390.298 92.3221" fill="none" opacity="1" stroke="#634b4c" stroke-linecap="butt" stroke-linejoin="round" stroke-width="6.89346" vectornator:layerName="Curve 4"/>
</g>
</g>
</svg>
