<?xml version="1.0" encoding="UTF-8" standalone="no"?>
<!-- Created with Inkscape (http://www.inkscape.org/) -->

<svg
   width="122.87041mm"
   height="118.96238mm"
   viewBox="0 0 122.87041 118.96238"
   version="1.1"
   id="svg5"
   xml:space="preserve"
   sodipodi:docname="peli.svg"
   inkscape:version="1.2.2 (732a01da63, 2022-12-09)"
   xmlns:inkscape="http://www.inkscape.org/namespaces/inkscape"
   xmlns:sodipodi="http://sodipodi.sourceforge.net/DTD/sodipodi-0.dtd"
   xmlns="http://www.w3.org/2000/svg"
   xmlns:svg="http://www.w3.org/2000/svg"><sodipodi:namedview
     id="namedview7"
     pagecolor="#ffffff"
     bordercolor="#000000"
     borderopacity="0.25"
     inkscape:showpageshadow="2"
     inkscape:pageopacity="0.0"
     inkscape:pagecheckerboard="0"
     inkscape:deskcolor="#d1d1d1"
     inkscape:document-units="mm"
     showgrid="false"
     inkscape:zoom="1.0885159"
     inkscape:cx="388.6025"
     inkscape:cy="243.91008"
     inkscape:window-width="1838"
     inkscape:window-height="1051"
     inkscape:window-x="73"
     inkscape:window-y="-9"
     inkscape:window-maximized="1"
     inkscape:current-layer="layer1" /><defs
     id="defs2" /><g
     inkscape:label="Layer 1"
     inkscape:groupmode="layer"
     id="layer1"
     transform="translate(-22.046914,-48.936)"><path
       style="fill:#fff9dc;fill-opacity:1;stroke:#000000;stroke-width:1.165;stroke-dasharray:none;stroke-opacity:1"
       d="m 143.73403,104.96597 c 0,0 -12.01946,-15.14091 -25.16032,-23.41787 -13.14084,-8.27696 -27.676495,-20.28872 -27.676495,-20.28872 0,0 0.20924,-4.94096 -2.57812,-7.5625 -2.78736,-2.62154 -9.47972,-4.91424 -14.4375,-3.95313 -4.95779,0.96112 -11.02444,3.74777 -12.20313,9.28125 -1.17869,5.53348 3.00441,12.83611 8.9375,16.32813 5.93309,3.49202 9.35826,8.86398 10.88711,13.35591 1.52884,4.49192 1.43109,8.51622 -1.45662,9.64227 -6.76238,2.63696 -22.21858,1.82065 -31.60236,7.93932 -13.65844,8.90595 -25.35156,39.1875 -25.35156,39.1875 l 19.33593,-8.42188 3.60938,6.01563 0.6875,16.67187 -0.85938,6.875 4.8125,-2.40625 5.5,2.23438 0.34375,-2.75 7.39063,1.03125 -12.20313,-5.84375 -0.34375,-16.15625 8.59375,-5.5 4.64063,5.15625 0.17187,16.5 -3.60937,3.69531 5.15624,2.23438 22.88667,0.3218 -19.3239,-5.40826 -0.66844,-15.67788 c 0,0 25.28974,-10.62607 29.07443,-24.35285 3.784685,-13.72678 -15.64063,-44.85938 -15.64063,-44.85938 0,0 20.621645,23.54533 31.624995,28.1875 11.00336,4.64217 29.46182,1.94097 29.46182,1.94097 z"
       id="path1793-0"
       sodipodi:nodetypes="csczzzzzssccccccccccccccccccczczc" /><path
       style="fill:#ffea6b;fill-opacity:1;stroke:none;stroke-width:1.165;stroke-dasharray:none;stroke-opacity:1"
       d="m 143.24548,104.62891 c 0,0 -10.95985,-11.806842 -17.04531,-17.058838 -11.10181,-9.5813 -35.333591,-26.210697 -35.333591,-26.210697 l -7.927102,14.012131 c 0,0 18.699803,22.507338 31.473973,27.710524 8.91345,3.63062 28.83203,1.54688 28.83203,1.54688 z"
       id="path2824"
       sodipodi:nodetypes="csccsc" /><ellipse
       style="fill:#ffea6b;fill-opacity:1;stroke:none;stroke-width:1.26557;stroke-dasharray:none;stroke-opacity:1"
       id="path2930"
       ry="3.546602"
       rx="3.8007286"
       cy="62.286163"
       cx="-80.034264"
       transform="scale(-1,1)" /><path
       style="fill:#000000;fill-opacity:1;stroke:none;stroke-width:1.165;stroke-dasharray:none;stroke-opacity:1"
       id="path7628"
       sodipodi:type="arc"
       sodipodi:cx="-79.201508"
       sodipodi:cy="63.66861"
       sodipodi:rx="1.3520656"
       sodipodi:ry="1.2912985"
       sodipodi:start="0"
       sodipodi:end="6.2608846"
       sodipodi:open="true"
       sodipodi:arc-type="arc"
       d="m -77.849442,63.66861 a 1.3520656,1.2912985 0 0 1 -1.344528,1.291278 1.3520656,1.2912985 0 0 1 -1.359519,-1.27688 1.3520656,1.2912985 0 0 1 1.329368,-1.305516 1.3520656,1.2912985 0 0 1 1.374343,1.262323"
       transform="scale(-1,1)" /></g><g
     inkscape:groupmode="layer"
     id="layer2"
     inkscape:label="Layer 2"
     transform="translate(-22.046914,-48.936)"><path
       style="fill:none;fill-opacity:1;stroke:#000000;stroke-width:1.165;stroke-dasharray:none;stroke-opacity:1"
       d="m 143.8323,105.23784 c 0,0 -12.01947,-15.14091 -25.16031,-23.417868 -13.14085,-8.276958 -27.676503,-20.288721 -27.676503,-20.288721 0,0 0.209233,-4.94096 -2.578126,-7.562501 -2.787359,-2.621541 -9.479715,-4.914239 -14.4375,-3.953126 -4.957785,0.961113 -11.024436,3.747769 -12.203126,9.281249 -1.17869,5.53348 3.00441,12.836109 8.937501,16.328126 5.933088,3.492017 9.358256,8.863984 10.887104,13.35591 1.528848,4.491926 1.431091,8.516218 -1.45662,9.642269 -6.762379,2.636962 -22.218575,1.820652 -31.602355,7.939322 -13.65844,8.90595 -25.35156,39.1875 -25.35156,39.1875 l 19.33593,-8.42188 3.60938,6.01563 0.6875,16.67187 -0.85938,6.875 4.8125,-2.40625 5.5,2.23438 0.34375,-2.75 L 64.011115,165 51.807985,159.15625 51.464235,143 l 8.59375,-5.5 4.64063,5.15625 0.17187,16.5 -3.60937,3.69531 5.15624,2.23438 22.886669,0.3218 -19.323901,-5.40826 -0.668438,-15.67788 c 0,0 25.289735,-10.62607 29.074427,-24.35285 3.784688,-13.72678 -15.640627,-44.859377 -15.640627,-44.859377 0,0 20.621645,23.545328 31.624995,28.187497 11.00336,4.64217 29.46182,1.94097 29.46182,1.94097 z"
       id="path1793"
       sodipodi:nodetypes="csczzzzzssccccccccccccccccccczczc" /></g></svg>
