<svg width="3000" height="3000" xmlns="http://www.w3.org/2000/svg">

 <g>
  <title>background</title>
  <rect fill="none" id="canvas_background" height="3002" width="3002" y="-1" x="-1"/>
 </g>
 <g>
  <title>Layer 1</title>
  <g id="svg_1" fill="#373A36">
   <path id="svg_2" d="m2863.67659,1386.37496a30.11,30.11 0 1 1 -0.17,60.21c-17.29,0 -31.18,-13.36 -31.18,-30.28c0,-16.57 13.89,-29.93 31.18,-29.93l0.17,0zm-0.53,7c-12.64,0 -22.28,10.15 -22.28,23.15c0,12.84 9.64,23.17 22.45,23.17c12.83,0.18 22.28,-10.33 22.28,-23.17c0,-13 -9.45,-23.15 -22.28,-23.15l-0.17,0zm-3.93,37.95l-8,0l0,-28.71a56.19,56.19 0 0 1 11.92,-1.1c6,0 8.75,0.89 10.69,2.32a6.79,6.79 0 0 1 3,6.06c0,3.2 -2.68,5.69 -6.24,6.77l0,0.35c3,1.07 4.63,3.38 5.52,7.31a34.16,34.16 0 0 0 2,6.95l-8.55,0c-0.89,-1.08 -1.42,-3.57 -2.12,-6.6c-0.7,-3.03 -2.16,-4.28 -5.36,-4.28l-2.86,0l0,10.93zm0.18,-16.39l2.86,0c3.38,0 5.88,-1.25 5.88,-3.93c0,-2.49 -1.78,-3.92 -5.52,-3.92c-1.42,0 -2.49,0.18 -3.22,0.18l0,7.67zm-2753.64,-62.12c21.92,-3.73 52.71,-6.52 96.08,-6.52c43.84,0 75.09,8.39 96.08,25.18c20.06,15.85 33.59,42 33.59,72.76c0,30.76 -10.27,56.91 -28.92,74.63c-24.26,22.85 -60.17,33.12 -102.15,33.12a179.38,179.38 0 0 1 -24.25,-1.4l0,112.4l-70.43,0l0,-310.17zm70.43,142.73c6.06,1.4 13.53,1.86 23.79,1.86c37.77,0 61.1,-19.12 61.1,-51.3c0,-28.92 -20.06,-46.18 -55.5,-46.18c-14.47,0 -24.26,1.4 -29.39,2.8l0,92.82z"/>
   <path id="svg_3" d="m553.49659,1546.38496c0,83.48 -59.23,121.73 -120.33,121.73c-66.7,0 -118,-43.84 -118,-117.53s48.51,-120.81 121.74,-120.81c69.96,0 116.59,48.05 116.59,116.61zm-165.11,2.33c0,39.18 16.32,68.56 46.65,68.56c27.52,0 45.24,-27.52 45.24,-68.56c0,-34 -13.06,-68.57 -45.24,-68.57c-34.05,0 -46.65,34.98 -46.65,68.57zm263.5,-177.24c0,19.59 -14.92,35.45 -38.24,35.45c-22.39,0 -37.31,-15.86 -36.85,-35.45c-0.46,-20.52 14.46,-35.86 37.34,-35.86c22.88,0 37.3,15.34 37.75,35.86zm-73.22,291.51l0,-228.08l70.9,0l0,228.08l-70.9,0zm109.13,-155.32c0,-28.44 -0.93,-52.7 -1.86,-72.76l61.56,0l3.26,31.25l1.38,0c9.33,-14.46 32.65,-36.38 70.43,-36.38c46.65,0 81.62,30.78 81.62,98l0,135.21l-70.87,0l0,-126.37c0,-29.38 -10.25,-49.44 -35.91,-49.44c-19.6,0 -31.26,13.53 -35.92,26.59c-1.87,4.66 -2.8,11.19 -2.8,17.73l0,131.49l-70.89,0l0,-155.32zm331.14,-134.79l0,62l50.84,0l0,52.24l-50.84,0l0,82.55c0,27.53 6.53,40.11 28,40.11c9.79,0 14,-0.45 21,-1.86l0.47,53.64c-9.34,3.73 -26.12,6.53 -46.18,6.53c-22.86,0 -42,-8.4 -53.17,-20.05c-13.09,-13.5 -19.62,-35.42 -19.62,-67.6l0,-93.29l-30.3,0l0,-52.24l30.3,0l0,-42.91l69.5,-19.12zm306.41,281.25c-13.06,6.53 -42.44,14 -80.69,14c-108.67,0 -164.65,-68.1 -164.65,-157.64c0,-107.28 76.5,-167 171.65,-167c36.85,0 64.82,7.47 77.43,14l-14.46,56.43a153.65,153.65 0 0 0 -59.7,-11.66c-56.44,0 -100.28,34.05 -100.28,104c0,63 37.31,102.61 100.74,102.61c21.45,0 45.25,-4.65 59.24,-10.26l10.72,55.52zm24.23,-322.29l70.9,0l0,331.15l-70.9,0l0,-331.15zm182.82,39.64c0,19.59 -14.92,35.45 -38.24,35.45c-22.38,0 -37.31,-15.86 -36.84,-35.45c-0.47,-20.52 14.46,-35.91 37.31,-35.91s37.3,15.39 37.77,35.91zm-73.26,291.51l0,-228.08l70.89,0l0,228.08l-70.89,0zm280.34,-5.6c-12.6,5.6 -36.37,10.73 -63.44,10.73c-73.68,0 -120.8,-45.24 -120.8,-117.07c0,-66.7 45.71,-121.27 130.6,-121.27c18.65,0 39.18,3.27 54.1,8.87l-11.18,52.7c-8.41,-3.73 -21,-7 -39.66,-7c-37.31,0 -61.56,26.59 -61.09,63.9c0,42 28,63.9 62.49,63.9c16.8,0 29.85,-2.79 40.57,-7.46l8.41,52.7zm91.39,-126.4l0.94,0c5.14,-9.33 10.72,-18.65 16.31,-27.52l46.2,-68.56l85.33,0l-81.61,92.35l93.29,135.73l-87.19,0l-55,-93.75l-18.27,22.38l0,71.35l-70.89,0l0,-331.13l70.89,0l0,199.15z"/>
   <path id="svg_4" d="m2227.30659,1654.12496c-13.06,6.53 -42.43,14 -80.69,14c-108.68,0 -164.65,-68.1 -164.65,-157.64c0,-107.28 76.5,-167 171.64,-167c36.86,0 64.83,7.47 77.44,14l-14.47,56.43a153.61,153.61 0 0 0 -59.7,-11.66c-56.43,0 -100.27,34.05 -100.27,104c0,63 37.31,102.61 100.73,102.61c21.46,0 45.26,-4.65 59.24,-10.26l10.73,55.52zm211.27,-46.64c0,21.91 0.93,42.92 3.26,55.5l-63.92,0l-4.18,-22.85l-1.41,0c-14.92,18.18 -38.24,28 -65.3,28c-46.17,0 -73.69,-33.58 -73.69,-70c0,-59.24 53.17,-87.68 133.86,-87.22l0,-3.27c0,-12.12 -6.52,-29.38 -41.5,-29.38c-23.32,0 -48,7.93 -63,17.26l-13.07,-45.71c15.86,-8.86 47.12,-20.06 88.62,-20.06c76,0 100.3,44.78 100.3,98.42l0.03,79.31zm-69,-52.24c-37.31,-0.47 -66.23,8.4 -66.23,35.91c0,18.2 12.13,27.07 28,27.07c17.73,0 32.16,-11.68 36.84,-26.13a51.53,51.53 0 0 0 1.4,-12.13l-0.01,-24.72zm106.26,-45.24c0,-33.58 -0.92,-55.51 -1.85,-75.1l61.15,0l2.34,42l1.86,0c11.65,-33.12 39.64,-47.11 61.56,-47.11c6.53,0 9.79,0 14.94,0.94l0,67.16a71.33,71.33 0 0 0 -19.13,-2.33c-26.12,0 -43.84,14 -48.51,35.92a83.64,83.64 0 0 0 -1.4,15.86l0,115.64l-70.96,0l0,-152.98zm209.42,61.61c2.33,29.38 31.25,43.39 64.37,43.39c24.25,0 43.83,-3.27 63,-9.34l9.31,48.05c-23.3,9.32 -51.76,14.45 -82.54,14.45c-77.44,0 -121.74,-45.24 -121.74,-116.6c0,-57.83 35.92,-121.74 115.21,-121.74c73.68,0 101.67,57.37 101.67,113.8c0,9.382 -0.781,18.747 -2.33,28l-146.95,-0.01zm83.5,-48.51c0,-17.25 -7.48,-46.17 -40.12,-46.17c-29.85,0 -42,27 -43.85,46.17l83.97,0z"/>
  </g>
 </g>
</svg>