<svg width="190" height="190" xmlns="http://www.w3.org/2000/svg">
 <style type="text/css">.st0{display:none;}
	.st1{display:inline;}
	.st2{fill:#163029;}
	.st3{fill:#4FC4CE;}
	.st4{fill:#3DAE2B;}
	.st5{fill:#FFFFFF;}</style>

 <g>
  <title>background</title>
  <rect fill="none" id="canvas_background" height="192" width="192" y="-1" x="-1"/>
 </g>
 <g>
  <title>Layer 1</title>
  <g id="Wordmark__x28_EN_x29_"/>
  <g class="st0" id="Wordmark__x28_FR_x29_">
   <g id="svg_1" class="st1">
    <g id="svg_2">
     <path id="svg_3" d="m243.19,22.2c2.08,0 3.01,-1.09 3.01,-3.37l0,-0.13c0,-2.32 -0.92,-3.31 -3.04,-3.31l-0.77,0l0,6.82l0.8,0l0,-0.01zm-4.33,-9.51l4.44,0c4.34,0 6.54,2.17 6.54,5.96l0,0.14c0,3.81 -2.25,6.12 -6.56,6.12l-4.42,0l0,-12.22l0,0zm-8.38,2.71l-3.16,0l0,-2.72l9.84,0l0,2.72l-3.16,0l0,9.5l-3.52,0l0,-9.5l0,0zm-15.92,6.68l2.82,0c0.1,0.65 0.39,1.08 1.26,1.08c0.75,0 1.09,-0.29 1.09,-0.8c0,-0.5 -0.43,-0.7 -1.66,-0.87c-2.39,-0.31 -3.4,-1.02 -3.4,-2.82c0,-1.98 1.76,-2.94 3.81,-2.94c2.22,0 3.76,0.75 3.96,2.9l-2.77,0c-0.14,-0.63 -0.44,-0.99 -1.14,-0.99c-0.67,0 -1.01,0.29 -1.01,0.75c0,0.44 0.41,0.68 1.5,0.82c2.48,0.31 3.67,0.92 3.67,2.82c0,2.12 -1.57,3.07 -4.05,3.07c-2.53,0.01 -4.02,-1.07 -4.08,-3.02l0,0zm-4.34,-2.66c-0.05,-1.06 -0.58,-1.67 -1.57,-1.67c-0.92,0 -1.55,0.61 -1.71,1.67l3.28,0l0,0zm-6.41,1.13l0,-0.14c0,-2.87 2.14,-4.68 4.83,-4.68c2.44,0 4.54,1.4 4.54,4.61l0,0.82l-6.29,0c0.12,1.18 0.77,1.84 1.86,1.84c1.01,0 1.44,-0.46 1.55,-1.06l2.87,0c-0.27,2.02 -1.83,3.16 -4.53,3.16c-2.78,0.01 -4.83,-1.63 -4.83,-4.55l0,0zm-6.95,-4.58l3.06,0l0,1.78c0.56,-1.33 1.5,-1.91 2.89,-1.9l0,2.85c-1.86,-0.07 -2.89,0.53 -2.89,1.96l0,4.24l-3.06,0l0,-8.93l0,0zm-4.61,3.45c-0.05,-1.06 -0.58,-1.67 -1.57,-1.67c-0.92,0 -1.55,0.61 -1.71,1.67l3.28,0l0,0zm-4.45,-7.31l3.07,0l0.91,2.84l-2.19,0l-1.79,-2.84l0,0zm-1.96,8.44l0,-0.14c0,-2.87 2.14,-4.68 4.83,-4.68c2.44,0 4.54,1.4 4.54,4.61l0,0.82l-6.29,0c0.12,1.18 0.77,1.84 1.86,1.84c1.01,0 1.44,-0.46 1.55,-1.06l2.87,0c-0.27,2.02 -1.83,3.16 -4.53,3.16c-2.78,0.01 -4.83,-1.63 -4.83,-4.55l0,0zm-4.68,-4.58l3.06,0l0,8.93l-3.06,0l0,-8.93l0,0zm-0.05,-3.61l3.16,0l0,2.6l-3.16,0l0,-2.6l0,0zm-5.08,0l3.04,0l0,12.54l-3.04,0l0,-12.54l0,0zm-5.16,3.61l3.06,0l0,8.93l-3.06,0l0,-8.93l0,0zm-0.05,-3.61l3.16,0l0,2.6l-3.16,0l0,-2.6l0,0zm-4.68,8.13l0,-0.14c0,-1.57 -0.68,-2.32 -1.76,-2.32c-1.11,0 -1.78,0.8 -1.78,2.31l0,0.14c0,1.52 0.67,2.29 1.78,2.29c1.15,0 1.76,-0.81 1.76,-2.28l0,0zm-3.45,3.03l0,1.38l-3.06,0l0,-12.54l3.06,0l0,4.94c0.51,-0.85 1.44,-1.57 2.78,-1.57c2.08,0 3.78,1.57 3.78,4.63l0,0.14c0,3.07 -1.69,4.61 -3.79,4.61c-1.33,0 -2.32,-0.64 -2.77,-1.59l0,0zm-7.77,-3.03l0,-0.14c0,-1.5 -0.6,-2.34 -1.76,-2.34c-1.14,0 -1.78,0.8 -1.78,2.31l0,0.14c0,1.54 0.6,2.37 1.78,2.37c1.14,0 1.76,-0.85 1.76,-2.34l0,0zm-6.66,0.06l0,-0.14c0,-2.87 2.14,-4.68 4.9,-4.68c2.75,0 4.87,1.76 4.87,4.6l0,0.14c0,2.9 -2.14,4.65 -4.89,4.65s-4.88,-1.69 -4.88,-4.57l0,0zm-15.34,-7.86l4.56,0l2.36,6.51l2.32,-6.51l4.48,0l0,12.21l-3.48,0l0,-7.53l-2.99,7.53l-1.17,0l-2.96,-7.53l0,7.53l-3.13,0l0,-12.21l0.01,0zm-13.58,9.39l2.82,0c0.1,0.65 0.39,1.08 1.26,1.08c0.75,0 1.09,-0.29 1.09,-0.8c0,-0.5 -0.43,-0.7 -1.66,-0.87c-2.39,-0.31 -3.4,-1.02 -3.4,-2.82c0,-1.98 1.76,-2.94 3.81,-2.94c2.22,0 3.76,0.75 3.96,2.9l-2.77,0c-0.14,-0.63 -0.44,-0.99 -1.14,-0.99c-0.67,0 -1.01,0.29 -1.01,0.75c0,0.44 0.41,0.68 1.5,0.82c2.48,0.31 3.67,0.92 3.67,2.82c0,2.12 -1.57,3.07 -4.05,3.07c-2.53,0.01 -4.02,-1.07 -4.08,-3.02l0,0zm-6.85,-6.11l3.06,0l0,1.78c0.56,-1.33 1.5,-1.91 2.89,-1.9l0,2.85c-1.86,-0.07 -2.89,0.53 -2.89,1.96l0,4.24l-3.06,0l0,-8.93l0,0zm-10.97,5.82l0,-5.83l3.06,0l0,5.33c0,1.01 0.39,1.5 1.26,1.5c0.92,0 1.52,-0.55 1.52,-1.69l0,-5.14l3.06,0l0,8.93l-3.06,0l0,-1.38c-0.48,0.92 -1.35,1.59 -2.84,1.59c-1.72,0.01 -3,-1.05 -3,-3.31l0,0zm-4.58,-2.37c-0.05,-1.06 -0.58,-1.67 -1.57,-1.67c-0.92,0 -1.55,0.61 -1.71,1.67l3.28,0l0,0zm-6.41,1.13l0,-0.14c0,-2.87 2.14,-4.68 4.83,-4.68c2.44,0 4.54,1.4 4.54,4.61l0,0.82l-6.29,0c0.12,1.18 0.77,1.84 1.86,1.84c1.01,0 1.44,-0.46 1.55,-1.06l2.87,0c-0.27,2.02 -1.83,3.16 -4.53,3.16c-2.78,0.01 -4.83,-1.63 -4.83,-4.55l0,0zm-4.66,-8.19l3.04,0l0,12.54l-3.04,0l0,-12.54l0,0zm-5.04,8.12l0,-0.14c0,-1.55 -0.63,-2.31 -1.67,-2.31c-1.08,0 -1.71,0.77 -1.71,2.32l0,0.14c0,1.5 0.65,2.27 1.66,2.27c1.02,0.01 1.72,-0.76 1.72,-2.28l0,0zm-6.49,0.05l0,-0.14c0,-3.04 1.74,-4.66 3.74,-4.66c1.35,0 2.15,0.58 2.66,1.49l0,-1.25l3.06,0l0,8.93l-3.06,0l0,-1.43c-0.46,0.91 -1.4,1.64 -2.68,1.64c-1.98,0 -3.72,-1.49 -3.72,-4.58l0,0zm-11.93,-7.84l3.78,0l2.48,8.58l2.49,-8.58l3.28,0l-4,12.21l-3.98,0l-4.05,-12.21l0,0z" class="st2"/>
    </g>
   </g>
  </g>
  <g id="TD_Shield"/>
  <g id="Layer_5">
   <g id="svg_4">
    <g id="svg_5">
     <g id="svg_6">
      <path id="svg_7" d="m176.585,98.415l2.88,0c0.1,0.66 0.4,1.1 1.29,1.1c0.77,0 1.12,-0.3 1.12,-0.82c0,-0.51 -0.44,-0.71 -1.69,-0.89c-2.44,-0.31 -3.47,-1.05 -3.47,-2.88c0,-2.02 1.79,-3 3.89,-3c2.27,0 3.83,0.77 4.04,2.96l-2.82,0c-0.14,-0.64 -0.45,-1.01 -1.17,-1.01c-0.68,0 -1.03,0.3 -1.03,0.77c0,0.45 0.42,0.7 1.53,0.84c2.53,0.31 3.75,0.94 3.75,2.88c0,2.16 -1.6,3.14 -4.13,3.14c-2.61,0 -4.12,-1.1 -4.19,-3.09l0,0zm-4.43,-2.72c-0.05,-1.08 -0.59,-1.71 -1.6,-1.71c-0.94,0 -1.59,0.63 -1.74,1.71l3.34,0l0,0zm-6.54,1.15l0,-0.14c0,-2.93 2.18,-4.77 4.93,-4.77c2.49,0 4.64,1.43 4.64,4.7l0,0.84l-6.41,0c0.12,1.2 0.78,1.88 1.9,1.88c1.03,0 1.46,-0.47 1.59,-1.08l2.93,0c-0.28,2.06 -1.86,3.22 -4.62,3.22c-2.86,0.01 -4.96,-1.67 -4.96,-4.65l0,0zm-4.8,-4.67l3.12,0l0,9.11l-3.12,0l0,-9.11l0,0zm-0.06,-3.67l3.22,0l0,2.65l-3.22,0l0,-2.65l0,0zm-6.55,9.86l0,-4.06l-1.1,0l0,-2.13l1.1,0l0,-1.9l3.12,0l0,1.9l1.79,0l0,2.13l-1.79,0l0,3.76c0,0.66 0.33,0.96 0.92,0.96c0.35,0 0.61,-0.05 0.89,-0.16l0,2.37c-0.4,0.1 -0.99,0.26 -1.72,0.26c-2.06,0.01 -3.21,-0.99 -3.21,-3.13l0,0zm-5.87,-6.19l3.12,0l0,9.11l-3.12,0l0,-9.11l0,0zm-0.05,-3.67l3.22,0l0,2.65l-3.22,0l0,-2.65l0,0zm-7.71,3.67l3.12,0l0,1.81c0.57,-1.36 1.53,-1.95 2.94,-1.93l0,2.91c-1.9,-0.07 -2.94,0.54 -2.94,2l0,4.32l-3.12,0l0,-9.11l0,0zm-11.18,5.95l0,-5.94l3.12,0l0,5.44c0,1.03 0.4,1.53 1.29,1.53c0.94,0 1.55,-0.56 1.55,-1.73l0,-5.25l3.12,0l0,9.11l-3.12,0l0,-1.41c-0.49,0.94 -1.38,1.62 -2.89,1.62c-1.77,0.01 -3.07,-1.07 -3.07,-3.37l0,0zm-11,-1.28l0,-0.14c0,-3.03 2.18,-4.77 4.86,-4.77c2.23,0 4.29,0.98 4.46,3.75l-2.93,0c-0.14,-0.85 -0.56,-1.32 -1.46,-1.32c-1.1,0 -1.74,0.78 -1.74,2.32l0,0.14c0,1.59 0.61,2.4 1.79,2.4c0.87,0 1.48,-0.52 1.59,-1.52l2.81,0c-0.09,2.3 -1.64,3.8 -4.58,3.8c-2.73,0 -4.8,-1.59 -4.8,-4.66l0,0zm-4.53,-1.15c-0.05,-1.08 -0.59,-1.71 -1.6,-1.71c-0.94,0 -1.59,0.63 -1.74,1.71l3.34,0l0,0zm-6.54,1.15l0,-0.14c0,-2.93 2.18,-4.77 4.93,-4.77c2.49,0 4.64,1.43 4.64,4.7l0,0.84l-6.41,0c0.12,1.2 0.78,1.88 1.9,1.88c1.03,0 1.46,-0.47 1.59,-1.08l2.93,0c-0.28,2.06 -1.86,3.22 -4.62,3.22c-2.86,0.01 -4.96,-1.67 -4.96,-4.65l0,0zm-11.9,0.49l3.38,0c0.09,0.89 0.51,1.62 1.99,1.62c1.03,0 1.6,-0.51 1.6,-1.24c0,-0.68 -0.47,-0.99 -1.97,-1.2c-3.33,-0.4 -4.71,-1.36 -4.71,-3.96c0,-2.27 1.85,-3.9 4.83,-3.9c3,0 4.69,1.25 4.91,3.89l-3.29,0c-0.12,-0.89 -0.64,-1.34 -1.64,-1.34c-0.94,0 -1.43,0.44 -1.43,1.06c0,0.7 0.38,1.01 1.93,1.2c2.98,0.38 4.77,1.13 4.77,3.89c0,2.28 -1.81,4.15 -5.02,4.15c-3.47,0 -5.24,-1.47 -5.35,-4.17l0,0zm-11.73,1.2c2.13,0 3.07,-1.12 3.07,-3.43l0,-0.14c0,-2.37 -0.94,-3.38 -3.1,-3.38l-0.78,0l0,6.95l0.81,0l0,0zm-4.4,-9.7l4.53,0c4.43,0 6.67,2.21 6.67,6.08l0,0.14c0,3.89 -2.3,6.24 -6.69,6.24l-4.51,0l0,-12.46l0,0zm-8.56,2.77l-3.22,0l0,-2.77l10.04,0l0,2.77l-3.22,0l0,9.69l-3.59,0l0,-9.69l-0.01,0z" class="st2"/>
     </g>
    </g>
    <g id="svg_8">
     <polygon id="svg_9" points="5.095001220703125,113.6050033569336 46.70500183105469,113.6050033569336 46.70500183105469,76.39500427246094 5.095001220703125,76.39500427246094 5.095001220703125,113.6050033569336 " class="st4"/>
     <path id="svg_10" d="m32.415,105.555l-9.69,0l0,-17.46l4.87,0l0,14.37l4.68,0c3.23,0 4.59,-2.24 4.59,-8.01c0,-5.8 -1.54,-7.49 -4.82,-7.49l-10.69,0l0,18.58l-4.82,0l0,-18.57l-7.07,0l0,-3.1l24.07,0c5.81,0 8.56,3 8.56,10.54c0.01,9.93 -4.11,11.14 -9.68,11.14" class="st5"/>
    </g>
   </g>
  </g>
 </g>
</svg>