<?xml version="1.0" encoding="UTF-8" standalone="no"?>
<svg
   xmlns:dc="http://purl.org/dc/elements/1.1/"
   xmlns:cc="http://creativecommons.org/ns#"
   xmlns:rdf="http://www.w3.org/1999/02/22-rdf-syntax-ns#"
   xmlns:svg="http://www.w3.org/2000/svg"
   xmlns="http://www.w3.org/2000/svg"
   xmlns:sodipodi="http://sodipodi.sourceforge.net/DTD/sodipodi-0.dtd"
   xmlns:inkscape="http://www.inkscape.org/namespaces/inkscape"
   version="1.1"
   id="svg2"
   xml:space="preserve"
   width="732.09332"
   height="489.46667"
   viewBox="0 0 732.09332 489.46667"
   sodipodi:docname="uw.eps"><metadata
     id="metadata8"><rdf:RDF><cc:Work
         rdf:about=""><dc:format>image/svg+xml</dc:format><dc:type
           rdf:resource="http://purl.org/dc/dcmitype/StillImage" /></cc:Work></rdf:RDF></metadata><defs
     id="defs6" /><sodipodi:namedview
     pagecolor="#ffffff"
     bordercolor="#666666"
     borderopacity="1"
     objecttolerance="10"
     gridtolerance="10"
     guidetolerance="10"
     inkscape:pageopacity="0"
     inkscape:pageshadow="2"
     inkscape:window-width="640"
     inkscape:window-height="480"
     id="namedview4" /><g
     id="g10"
     inkscape:groupmode="layer"
     inkscape:label="ink_ext_XXXXXX"
     transform="matrix(1.3333333,0,0,-1.3333333,0,489.46667)"><g
       id="g12"
       transform="scale(0.1)"><path
         d="m 1199.78,2740 h 86.27 l 75.67,-247.54 82.06,248.6 h 68.91 l 82,-248.6 75.75,247.54 h 84.09 l -124.89,-368.22 h -69.89 l -82.48,239.18 -82.61,-239.18 h -69.99 L 1199.78,2740"
         style="fill:#231f20;fill-opacity:1;fill-rule:nonzero;stroke:none"
         id="path14" /><path
         d="m 1881.92,2740.07 h 74.19 l 156.63,-368.29 h -84.02 l -33.45,82.04 h -154.6 l -33.44,-82.04 h -82.04 z m 84.63,-215.23 -48.52,118.55 -48.57,-118.55 z"
         style="fill:#231f20;fill-opacity:1;fill-rule:nonzero;stroke:none"
         id="path16" /><path
         d="M 2200.43,2663.27 H 2089.2 v 74.15 h 303.01 v -74.15 h -111.19 v -291.49 h -80.59 v 291.49"
         style="fill:#231f20;fill-opacity:1;fill-rule:nonzero;stroke:none"
         id="path18" /><path
         d="m 2453.39,2737.42 h 275.8 v -71.48 H 2533.3 v -74.19 h 172.43 v -71.66 H 2533.3 v -76.75 h 198.49 v -71.56 h -278.4 v 365.64"
         style="fill:#231f20;fill-opacity:1;fill-rule:nonzero;stroke:none"
         id="path20" /><path
         d="m 2818.31,2737.42 h 167.22 c 46.43,0 82.49,-13.04 106.53,-37.12 20.34,-20.35 31.32,-49.01 31.32,-83.45 v -1.11 c 0,-59.08 -31.82,-96.2 -78.31,-113.4 l 89.27,-130.56 h -94.07 l -78.33,116.98 h -63.12 v -116.98 h -80.51 z m 161.95,-177.64 c 39.21,0 61.67,20.92 61.67,51.72 v 1.07 c 0,34.47 -24.11,52.23 -63.27,52.23 h -79.84 v -105.02 h 81.44"
         style="fill:#231f20;fill-opacity:1;fill-rule:nonzero;stroke:none"
         id="path22" /><path
         d="m 3212.15,2737.42 h 80.43 V 2444.9 h 171.17 v -73.12 h -251.6 v 365.64"
         style="fill:#231f20;fill-opacity:1;fill-rule:nonzero;stroke:none"
         id="path24" /><path
         d="m 3476.14,2553.54 v 1.09 c 0,103.86 82.01,189.12 194.93,189.12 112.77,0 193.77,-84.15 193.77,-188.13 v -0.99 c 0,-104 -82.04,-189.12 -194.84,-189.12 -112.8,0 -193.86,84.08 -193.86,188.03 m 304.55,0 v 1.09 c 0,62.6 -45.94,114.91 -110.69,114.91 -64.77,0 -109.73,-51.23 -109.73,-113.92 v -0.99 c 0,-62.69 45.97,-114.98 110.8,-114.98 64.69,0 109.62,51.17 109.62,113.89"
         style="fill:#231f20;fill-opacity:1;fill-rule:nonzero;stroke:none"
         id="path26" /><path
         d="m 3899.5,2553.54 v 1.09 c 0,103.86 82.02,189.12 194.81,189.12 112.87,0 193.85,-84.15 193.85,-188.13 v -0.99 c 0,-104 -82,-189.12 -194.88,-189.12 -112.82,0 -193.78,84.08 -193.78,188.03 m 304.57,0 v 1.09 c 0,62.6 -45.96,114.91 -110.79,114.91 -64.69,0 -109.68,-51.23 -109.68,-113.92 v -0.99 c 0,-62.69 46,-114.98 110.71,-114.98 64.77,0 109.76,51.17 109.76,113.89"
         style="fill:#231f20;fill-opacity:1;fill-rule:nonzero;stroke:none"
         id="path28" /><path
         d="m 1403.91,2922.45 v 96.26 h 37.06 v -95.31 c 0,-27.43 13.72,-41.62 36.34,-41.62 22.63,0 36.34,13.72 36.34,40.43 v 96.5 h 37.07 v -95.06 c 0,-51.03 -28.64,-76.06 -73.9,-76.06 -45.23,0 -72.91,25.27 -72.91,74.86"
         style="fill:#231f20;fill-opacity:1;fill-rule:nonzero;stroke:none"
         id="path30" /><path
         d="m 1649.29,3018.71 h 34.17 l 78.95,-103.73 v 103.73 h 36.57 v -168.47 h -31.53 l -81.58,107.1 v -107.1 h -36.58 v 168.47"
         style="fill:#231f20;fill-opacity:1;fill-rule:nonzero;stroke:none"
         id="path32" /><path
         d="m 1904.4,3018.71 h 37.06 v -168.47 h -37.06 v 168.47"
         style="fill:#231f20;fill-opacity:1;fill-rule:nonzero;stroke:none"
         id="path34" /><path
         d="m 2032.43,3018.71 h 40.91 l 44.03,-118.65 44.04,118.65 h 39.96 l -68.11,-169.68 h -32.73 l -68.1,169.68"
         style="fill:#231f20;fill-opacity:1;fill-rule:nonzero;stroke:none"
         id="path36" /><path
         d="m 2290.66,3018.71 h 127.07 v -32.97 h -90.25 v -34.17 h 79.43 v -32.97 h -79.43 v -35.39 h 91.45 v -32.97 h -128.27 v 168.47"
         style="fill:#231f20;fill-opacity:1;fill-rule:nonzero;stroke:none"
         id="path38" /><path
         d="m 2589.83,2936.88 c 18.03,0 28.38,9.62 28.38,23.84 v 0.48 c 0,15.87 -11.07,24.06 -29.12,24.06 h -36.81 v -48.38 z m -74.62,81.83 h 77.02 c 21.41,0 38.03,-6.01 49.1,-17.1 9.37,-9.38 14.44,-22.61 14.44,-38.5 v -0.47 c 0,-27.21 -14.69,-44.28 -36.11,-52.24 l 41.16,-60.16 h -43.33 l -36.1,53.92 h -29.11 v -53.92 h -37.07 v 168.47"
         style="fill:#231f20;fill-opacity:1;fill-rule:nonzero;stroke:none"
         id="path40" /><path
         d="m 2740.95,2874.8 21.91,26.22 c 15.16,-12.52 31.04,-20.45 50.3,-20.45 15.16,0 24.29,6.02 24.29,15.89 v 0.48 c 0,9.37 -5.77,14.2 -33.92,21.42 -33.93,8.65 -55.83,18.05 -55.83,51.5 v 0.47 c 0,30.56 24.55,50.79 58.95,50.79 24.55,0 45.49,-7.71 62.57,-21.41 l -19.26,-27.94 c -14.9,10.36 -29.59,16.61 -43.79,16.61 -14.19,0 -21.66,-6.48 -21.66,-14.67 v -0.48 c 0,-11.09 7.24,-14.68 36.36,-22.14 34.16,-8.91 53.42,-21.18 53.42,-50.55 v -0.48 c 0,-33.45 -25.51,-52.22 -61.86,-52.22 -25.51,0 -51.27,8.91 -71.48,26.96"
         style="fill:#231f20;fill-opacity:1;fill-rule:nonzero;stroke:none"
         id="path42" /><path
         d="m 2971.52,3018.71 h 37.05 v -168.47 h -37.05 v 168.47"
         style="fill:#231f20;fill-opacity:1;fill-rule:nonzero;stroke:none"
         id="path44" /><path
         d="m 3153.21,2984.52 h -51.27 v 34.19 h 139.61 v -34.19 h -51.27 v -134.28 h -37.07 v 134.28"
         style="fill:#231f20;fill-opacity:1;fill-rule:nonzero;stroke:none"
         id="path46" /><path
         d="m 3380.67,2916.68 -64.76,102.03 h 43.32 l 40.2,-67.62 40.89,67.62 h 42.14 l -64.75,-101.33 v -67.14 h -37.04 v 66.44"
         style="fill:#231f20;fill-opacity:1;fill-rule:nonzero;stroke:none"
         id="path48" /><path
         d="m 3833.38,2933.99 v 0.49 c 0,28.88 -21.2,52.94 -51.03,52.94 -29.86,0 -50.56,-23.57 -50.56,-52.46 v -0.48 c 0,-28.88 21.18,-52.95 51.03,-52.95 29.86,0 50.56,23.57 50.56,52.46 z m -140.34,0 v 0.49 c 0,47.89 37.81,87.12 89.78,87.12 51.98,0 89.29,-38.74 89.29,-86.64 v -0.48 c 0,-47.89 -37.78,-87.13 -89.76,-87.13 -52,0 -89.31,38.74 -89.31,86.64"
         style="fill:#231f20;fill-opacity:1;fill-rule:nonzero;stroke:none"
         id="path50" /><path
         d="m 3951.72,3018.71 h 128.27 v -33.69 h -91.23 v -35.86 h 80.39 v -33.69 h -80.39 v -65.23 h -37.04 v 168.47"
         style="fill:#231f20;fill-opacity:1;fill-rule:nonzero;stroke:none"
         id="path52" /><path
         d="m 2742.35,1003.08 -12.79,5.94 c -142.02,65.72 -256.62,161.19 -331.47,276.07 -179.53,275.45 -185.44,559.98 -191.71,861.19 -0.5,22.84 -0.97,45.71 -1.54,68.66 l -0.74,31.14 h 1075.93 l -0.75,-31.15 c -0.57,-23.07 -1.07,-46.09 -1.52,-69.08 -6.31,-301.04 -12.28,-585.45 -191.74,-860.76 -74.69,-114.69 -189.1,-210.13 -330.86,-276.03 l -12.81,-5.98"
         style="fill:#ffffff;fill-opacity:1;fill-rule:nonzero;stroke:none"
         id="path54" /><path
         d="m 2739.89,1875.18 -421.56,-331.87 c -67.74,209.87 -65.87,429.26 -71.31,652.68 h 983.52 c -5.44,-223.97 -2.91,-442.48 -71.13,-652.81 l -419.52,332"
         style="fill:#fbce28;fill-opacity:1;fill-rule:nonzero;stroke:none"
         id="path56" /><path
         d="m 3081.26,1364.23 c -10.39,-18.45 -21.5,-36.81 -33.43,-55.13 -74.97,-115.1 -186.33,-200.28 -308.81,-257.21 -122.94,56.93 -234.28,142.11 -309.3,257.21 -11.69,17.89 -32.72,53.84 -32.72,53.84 l 342.89,273.66 341.37,-272.37"
         style="fill:#fbce28;fill-opacity:1;fill-rule:nonzero;stroke:none"
         id="path58" /><path
         d="m 2451.29,2027.51 c -49.79,10.58 -94.13,47.62 -83.44,94.61 0.1,0.45 -1.91,12.14 -6.22,13.75 -0.33,0.14 -1.04,1.47 -1.78,1.65 -1.88,0.5 -3.47,1.33 -5.05,2.48 -0.57,0.41 -2.89,1.2 -2.89,2.03 -0.9,-1.95 -0.71,-3.73 -2.04,-5.43 -0.47,-0.63 -1.18,-1.61 -1.89,-1.99 -0.9,-0.47 -0.97,-1.3 -1.66,-1.91 -3.73,-3.76 -1.75,-9.43 -1.15,-13.74 0.16,-1.09 0.61,-2.41 -0.72,-2.66 -1.58,-0.28 -0.3,0.43 -2.15,1.57 -0.42,0.27 -1.06,0.97 -1.54,1.2 -0.78,0.36 -3.87,0.79 -4.4,1.54 -0.56,0.82 -0.33,1.09 -1.06,1.76 -1.75,1.54 -1.89,4.63 -3.15,7.81 -0.23,0.57 -0.73,3.35 -0.73,3.96 0,3.2 -8.14,8.3 -4.97,5.68 1.07,-0.9 -0.19,1.29 -4.52,2.37 -2.75,0.69 -5.95,0.54 -9.02,0.15 -0.64,-0.09 -1.23,-0.63 -1.71,-0.96 -3.14,-2.46 -6.08,-5.38 -10.19,-5.56 0.69,0.43 1.04,-0.39 1.34,-0.76 1.97,-2.53 0.55,-5.65 1.71,-8.44 1.16,-2.73 3.15,-4.83 5.49,-6.7 2.27,-1.78 6.22,0.56 7.95,-2.53 0,0.1 3.72,-0.87 0.07,-4.52 -6.69,-6.76 -14.15,-1.29 -19.68,-13.83 8.4,3.62 9.32,-9.18 12.89,-9.66 16.05,-2.19 28.28,-5.02 37.08,-21.3 5.4,-9.95 -9.63,-10.42 3.95,-12.74 6.91,-1.19 11.53,-4.66 15.03,-9.55 3.64,-5.14 4.16,-12.03 8.06,-16.83 2.87,-3.43 3.93,-4.11 7.36,-6.98 1.56,-1.31 6.48,-2.58 8.35,-3.05 1.85,-0.5 2.96,-1.42 4.71,-2.07 1.9,-0.68 3.85,-1.34 5.44,-2.63 1.35,-1.12 4.76,-2.29 5.54,-3.85 1.4,-2.71 0.25,-5.51 1.75,-8.24 0.45,-0.76 2.56,-0.1 3.46,-0.39 0.82,-0.3 2.71,-0.39 3.24,-0.3 3.26,0.75 4.04,0.96 6.47,1.25 3.72,0.43 3.29,-0.74 8.1,-0.5 1.01,0 1.41,-0.75 2.81,-0.75 0.93,0 2.53,-0.99 2.81,-0.15 1.45,4.57 3.84,8.96 6.54,13.42 2.67,4.45 2.46,4.88 5.87,9.53 -0.41,-0.13 4.37,3.22 3.94,3.26"
         style="fill:#c21b32;fill-opacity:1;fill-rule:nonzero;stroke:none"
         id="path60" /><path
         d="m 2327.02,2021.73 c 14.6,-7.85 12.61,-27.27 25.76,-33.54 23.4,-11.13 51.31,-18.77 76.19,-6.56 -5.54,-17.3 0.58,-31.78 -1.83,-33.73 -7.8,-6.27 -31.56,1.19 -46.77,7.23 -10.48,4.16 -18.98,-11.41 -30.52,-10.04 0.57,1.34 1.89,5.35 1.11,7.81 -1.82,5.62 -3.29,7.27 -12.63,6.17 -6.06,-0.66 -3.55,-5.64 -12.59,-10.1 -3.57,2.13 -11.22,4.52 -12.34,-2.26 -0.52,-3.19 -6.88,11.01 -5.6,13.38 5.91,10.62 7.12,13.1 6.69,15.41 -0.68,3.49 -13.51,8.22 -15.19,5.27 -3.97,-6.97 -15.75,22.58 19,20.68 -9.34,6 -8.28,7.05 -6.08,14.18 0.26,0.98 -3.24,4.69 -5.63,2.13 -0.78,2.76 1.09,5.76 3.26,6.02 5.71,0.8 11.3,1.12 17.17,-2.05"
         style="fill:#c21b32;fill-opacity:1;fill-rule:nonzero;stroke:none"
         id="path62" /><path
         d="m 2396.17,2093.33 c 21.08,-4.85 52.62,22.38 70.93,-9.7 -13.51,4.9 -53.5,-16.5 -70.93,9.7"
         style="fill:#c21b32;fill-opacity:1;fill-rule:nonzero;stroke:none"
         id="path64" /><path
         d="m 2572.57,2046.68 c -0.43,-27.49 -28.89,-57.16 -5.8,-83.33 -9.44,0.15 -20.63,3.42 -27.19,8.73 -3.66,2.99 -2.86,-13.07 -2.36,-16.39 0.43,-2.81 -17.53,16.94 -24.27,12.11 -19.05,-13.69 -27.3,-19.35 -55.62,-20.39 -7.86,-0.27 -11.95,-6.62 -14.19,-13.48 -6.42,13.11 -1.66,42.93 2.03,56.18 10.03,36.34 46.51,47.13 75.8,64.49 21,12.51 30,36.94 28.93,60.76 14.91,-18.63 23,-45.3 22.67,-68.68"
         style="fill:#c21b32;fill-opacity:1;fill-rule:nonzero;stroke:none"
         id="path66" /><path
         d="m 2438.57,1737.22 c 3.55,-0.81 0.89,-3.77 -0.5,-4.67 -2.91,-1.91 -4.92,-4.29 -6.77,-7.2 -1.4,-2.17 -2.38,-4.5 -1.85,-7.17 0.37,-1.97 1.03,-3.71 1.76,-5.49 0.47,-1.11 1.49,-1.74 2.32,-2.64 0.35,-0.35 1.63,-1.99 1.66,-2.11 -0.78,2.78 3.11,5.57 4.04,5.04 18.12,-10.54 19.19,10.8 30.05,18.03 4.61,3.11 15.04,-0.47 12.34,-9.9 10.84,5.76 14.04,20.35 22.48,29.47 18.65,20.23 44.79,33.69 69.57,44.65 -8.96,9.53 -22.16,17.52 -28.88,28.43 -3.31,5.39 -7.26,16 0.07,14.04 30.49,-7.96 47.6,10.65 50.98,34.67 45.17,-5.84 56.92,36.86 63.01,69.12 2.96,15.67 11.51,17.01 2.15,43.69 -3.88,11.16 20.04,14.83 15.96,34.09 -1.13,5.31 -7.7,10.67 -11.59,11.3 3.69,-10.39 -13.69,-13 -15.58,-17.24 -2.94,-6.66 -7.24,-11.97 -7.82,-18.97 -14.7,20.36 -2.78,44.89 11.01,63.96 20.18,27.79 61.98,13.19 79.58,-4.73 0.31,8.99 -6.64,20.43 -12.39,25.94 16.46,2.1 34.32,-7.92 56.77,3.97 12.97,6.9 26.05,12.79 32.13,28.1 -27.56,-3.78 -64.92,17.44 -89.73,21.76 -46.3,8.02 -77.37,-23.55 -93.95,-61.21 -16.48,-37.61 -5.91,-65.7 11.99,-93.8 4.51,-7.09 -15.89,-2.42 -23.93,-6.6 -7.83,-4.05 -11.03,-13.71 -9.25,-22.25 9.86,10.59 36.03,4.06 38.39,-14.08 3.22,-24.49 -21.46,-60.12 -45.3,-49.42 -25.53,11.45 -39.98,38.36 -48.45,68.66 -21.82,-18.79 -62.15,-3.26 -80.89,-21.62 -17.81,-17.45 27.77,-29.28 45.52,-37.5 6.53,-3.07 13.08,-9.75 11.99,-18.01 -27.79,16.35 -61.27,-2.19 -59.64,-31.9 1.25,-22.18 28.41,-35.99 51.06,-37.86 9.41,-0.76 15.08,-11.27 3.62,-18.44 -20.09,-12.56 -42.49,-26.56 -64.14,-3.85 -3.62,3.79 -16.58,1.41 -19.16,-5.49 -1.26,-3.34 -1.66,-8.49 -1.14,-11.91 1.16,2.07 2.55,5 4.38,4.77 2.13,-0.3 4.73,-2.54 4.44,-4.13 -1.86,-11.13 -16.49,-3.92 -21.03,-12.57 -0.09,-0.2 -0.33,-0.36 -0.45,-0.57 -0.28,-0.72 -0.66,-1.34 -0.99,-1.97 -2.96,-5.88 -7.03,-9.57 0.26,-14.16 -0.19,1.07 3.62,-4.69 3.55,-5.71 0.35,5.34 5.91,5.26 5.91,5.26 l 3.22,-0.38 3.22,-1.4"
         style="fill:#c21b32;fill-opacity:1;fill-rule:nonzero;stroke:none"
         id="path68" /><path
         d="m 2344.45,1841.79 c -2.86,0.91 -5.84,-0.2 -8.68,-1.47 -1.82,-0.82 -4,0.04 -5.1,-1.82 -0.67,-1.09 -1.07,-2.32 -0.72,-3.61 0.19,-0.66 0.48,-1.93 1.04,-2.34 -3.81,0.31 -7.38,2.89 -10.29,5.51 -0.95,0.86 -1.52,1.83 -2.45,2.73 -0.56,0.63 -0.49,1.74 -0.9,2.6 -0.4,0.88 -0.23,1.89 -0.25,2.81 -0.1,2.6 -0.15,5.33 1.04,7.73 0.52,1.12 1.09,2.25 1.88,3.23 0.64,0.8 1.25,1.42 1.96,2.11 1.94,1.85 4.12,3.3 6.69,4.06 3.77,1.13 7.86,0.8 11.46,-0.78 2.86,-1.23 6.27,-1.1 9.27,-1.92 1.61,-0.45 4.62,4.18 2.44,4.71 -9.49,2.33 -9.44,4.9 -12.99,14.47 -1.66,1.88 -3.83,-0.27 -4.76,-1.25 -0.05,18.38 21.77,19.59 30.9,12.31 13.51,-10.86 3.36,-32.11 19.94,-37.97 8.64,-3.09 17.8,-5.45 26.71,-1.66 16.05,6.82 0.05,22.93 5.21,36.56 10.48,27.48 33.64,28.93 61.25,2.42 -24.7,-8.18 -36.24,-40.86 -22.71,-62.38 -21.79,8.54 -49.24,-5.84 -64.54,-15.6 14.22,14.23 -5.78,25.74 -10.81,23.2 l -6.06,-4.22 c -2.91,-3.69 -3.12,-7.5 -6.72,-11.01 -2.01,-1.93 -3.14,-2.33 -5.77,-3.01 -3.62,-0.94 -5.87,-0.66 -9.09,1.47 -0.59,0.39 -2.53,-0.45 -2.91,-0.94 -1.74,-2.13 -0.04,-3.2 -0.09,-4.01 -0.36,0.3 -2.6,2.11 -2.93,2.36 -2.06,1.55 -4.43,2.9 -5.71,5 -1.27,2.13 -2.15,7.44 -0.7,10.39 1.44,2.86 4.33,3.75 6.26,5.75 1.83,1.81 -0.35,4.64 -2.55,4.98"
         style="fill:#c21b32;fill-opacity:1;fill-rule:nonzero;stroke:none"
         id="path70" /><path
         d="m 2874.44,2084.5 c 1.97,-1.25 -0.14,-4.81 -2.39,-5.44 -2.64,-0.74 -6.37,0.38 -8.68,-0.52 -10.39,-3.81 -10.41,-29.38 -8.99,-26.42 1.56,3.26 9.22,1.14 14.17,0.17 8.02,-1.63 14.08,14.66 19.35,14.21 12.47,-1.14 24.13,-16.65 28.89,-26.85 0.85,-1.86 -5.23,-1.93 -5.64,-8.2 17,1.6 31.35,-9.45 43.64,-19.53 5.98,10.39 12.01,16.82 18.8,23.62 -25.55,24.86 -76.34,32.56 -68.51,77.87 1.03,5.82 -5.54,10.94 -8.45,13.79 -3.31,3.16 -10.84,3.35 -15.45,4.43 4.86,-10.03 -3.9,-11.02 -2.64,-26.95 0,-0.51 -1.45,-0.17 -2,0.05 -3.04,1.31 -5.65,3.2 -8.56,5.02 -2.63,1.63 -5.09,1.2 -8,0.77 -1.77,-0.24 -3.38,-1.05 -4.87,-2.12 -2.41,-1.73 -3.64,-3.94 -5.32,-6.4 -0.34,-0.43 -0.67,-0.98 -1.04,-1.37 -0.55,-0.56 -1.63,-2.27 -1.71,-3.14 1.33,0.14 5.44,-0.18 6.15,-1.27 1.19,-1.87 1.24,-4 2.63,-5.78 1.75,-2.21 3.22,-2.28 5.77,-3.34 3.98,-1.68 7.53,-2.44 11.88,-2.06"
         style="fill:#c21b32;fill-opacity:1;fill-rule:nonzero;stroke:none"
         id="path72" /><path
         d="m 2940.52,2102.75 c 15.95,1.18 31.75,13.42 49.39,-7.29 -3.26,1.57 -7.05,2.11 -9.03,0.51 -19.52,-15.73 -43.22,-10.41 -55.71,9.07 5.08,0.81 11.23,-2.6 15.35,-2.29"
         style="fill:#c21b32;fill-opacity:1;fill-rule:nonzero;stroke:none"
         id="path74" /><path
         d="m 3009.52,2044.86 c 26.22,13.25 52.72,23.93 63.51,56.43 2.1,6.34 6.95,-9.46 7.25,-10.35 13.87,-39.7 -13.77,-79.11 -8.08,-119.6 -9.23,5.64 -19.61,9.53 -29.74,9.84 -35.98,1.04 -44.53,-20.86 -46.56,-18.81 -9.86,9.98 -38.2,18.54 -36.15,16.64 -16.82,15.55 31.73,56.65 49.77,65.85"
         style="fill:#c21b32;fill-opacity:1;fill-rule:nonzero;stroke:none"
         id="path76" /><path
         d="m 2937.87,1780.78 c 3.6,-5.55 -1.19,3.13 2.9,-6.29 18.98,7.95 38.62,17.03 59.6,8.5 -9.29,42.68 21.86,53.03 24.32,59.42 3.95,10.26 -16.87,30.63 -32.55,24.94 -20.02,-7.17 -11.69,-32.44 -15.45,-50.09 -2.08,-9.79 -14.2,-16.95 -24.25,-13.48 -16.56,5.71 -23.21,21.13 -27.3,38.46 -2.75,11.52 -25.17,12.91 -30.02,3.47 -13.77,-26.77 8.18,3.09 6.77,-17.22 -0.24,-3.46 -16.1,-0.86 -19.64,-12.91 -2.41,-8.22 5.37,-13.71 15.16,-16.6 1.8,-0.51 -1.89,4.08 0.57,5.1 1.78,0.68 8.96,-3.17 8.11,-3.66 -9.44,-5.76 -11.85,-19.14 5.02,-24.98 0.12,-0.02 -1.23,4.83 0.04,5.78 13.19,9.85 26.93,-0.78 26.96,-0.44"
         style="fill:#c21b32;fill-opacity:1;fill-rule:nonzero;stroke:none"
         id="path78" /><path
         d="m 2652.5,1510.93 c 15.78,-7.28 20.87,0.55 41.62,3.9 2.91,0.48 14.57,-7.14 17.96,-11.01 -20.78,-3.28 -46.06,-21.38 -59.58,7.11"
         style="fill:#c21b32;fill-opacity:1;fill-rule:nonzero;stroke:none"
         id="path80" /><path
         d="m 2644.06,1494.31 c -0.97,1.07 -2.34,1.52 -3.62,2.01 -1.28,0.61 -2.68,1.08 -4.16,1.27 -0.36,0.07 -2.99,0.69 -3.39,0.82 -0.1,-0.92 1.12,-3.34 0.43,-3.96 -1.66,-1.53 -2.24,-1.17 -3.57,-3.17 -0.5,-0.8 -1.02,-1.56 -1.21,-2.46 -0.37,-1.81 -1.19,-3.88 -1.4,-5.95 -0.07,-1.04 0.36,-3.52 0.6,-4.48 0.14,-0.51 1.25,-2.75 1.56,-3.36 0,-0.02 2.53,-2.71 2.39,-2.59 2.93,-2.95 0.52,-1.23 4.14,-4.81 1.82,-1.72 -0.86,-4.75 -2.61,-4.24 -12.2,3.54 -13.9,17.68 -25.03,22.03 -8.09,3.13 -19.72,-3.16 -20.95,-15.48 2.71,0.8 5.55,-0.28 6.1,-2.52 2.98,-12.43 21.17,-5.02 21.59,-13.75 0.33,-5.73 -13.6,0.97 -19.11,-2.66 -7.28,-4.86 -8.26,-18.85 -1.84,-26.97 6.62,6.29 14.85,-2.93 21.28,1.66 4.51,3.2 6.11,7.77 10.7,9.78 13.98,6.17 18.1,-6.7 15,-19.63 7.55,3.52 25.31,7.17 29.38,8.3 7.39,2.02 7.69,18.97 16.7,25.24 -12.77,0.06 -28.57,5.6 -32.15,18.08 -0.33,1.33 0.57,2.86 0.69,4.38 0.33,4.75 -0.12,9.34 -1.92,13.71 -0.18,0.45 -0.63,1.06 -0.99,1.58 -0.49,0.71 -0.92,1.43 -1.42,2.19 -1.28,1.75 -3.14,2.56 -4.97,3.71 -0.8,0.53 -1.8,0.67 -2.38,1.47"
         style="fill:#c21b32;fill-opacity:1;fill-rule:nonzero;stroke:none"
         id="path82" /><path
         d="m 2550.12,1406.26 c 5.6,-10.86 -21.96,6.57 -32.3,-9.56 -3.31,-5.14 -1.54,-16.78 -1.54,-23.37 6.35,5.75 12.64,-5.17 24.46,5.28 1.3,-1.17 2.73,-1.91 0.93,-3.74 -4.35,-4.42 -6.82,-9.9 -4.5,-15.19 1.44,-3.46 11.27,-10.39 11.34,-9.78 0.99,7.09 13.1,0 15,13.94 0.83,5.76 2.51,15.31 10.83,11.84 7.59,-3.15 9.16,-11.77 7.38,-20.28 12.11,3.95 33.41,16.37 46.11,7.17 17.08,-12.32 45.12,-17.42 65.11,-23.61 -13.27,9.2 -17.49,33.24 -15.26,48.87 -31.47,-6.18 -64.5,-5.12 -93.67,8.36 -7.96,3.71 -6.9,12.94 -9.31,20.51 -2.73,8.57 -13.49,16.44 -23.23,15.72 -5.26,-0.39 -17.85,-11.41 -15.45,-11.97 -0.81,0.21 -0.78,-1.61 -1.21,-2.37 2.36,1.48 5.37,0 6.43,-2.56 0.78,-1.78 1.52,-3.75 3.03,-5.19 1.78,-1.75 4.87,-2.15 5.85,-4.07"
         style="fill:#c21b32;fill-opacity:1;fill-rule:nonzero;stroke:none"
         id="path84" /><path
         d="m 2625.54,1234.35 c 6.1,7.46 11.19,3.5 13.84,3.42 6.38,-0.22 5.95,-9.2 5.3,-14.94 25.03,12.11 48.85,29.35 78.21,23.04 -17.08,17.87 -11.05,56.27 13.13,61 0.05,0 -15.59,2.56 -17.25,3.61 -21.01,13.34 -46.7,26.04 -60.82,-1.87 -7.03,-13.89 5.86,-25.1 15.52,-36.57 1.75,-2.07 -1.07,-3.32 -3.34,-3.92 -22.97,-5.88 -65.29,-9.34 -67.21,25.04 -0.19,3.47 -9.09,6.35 -14.81,6.17 -17.02,-0.53 -16.75,-22.19 -14.81,-20.71 3.71,2.86 15.12,1.82 13.74,-6.85 -1.28,-8.15 -17.15,4.26 -23.46,-3.9 -5.31,-6.8 -5.14,-18 -1.38,-25.54 -0.75,2.76 2.44,4.81 4.17,5.07 17.64,2.97 18.64,-3.17 13.41,-20.26 -0.4,-1.29 5.2,-12.11 8.92,-13.06 -0.28,0.11 -0.23,2.46 0.29,3.25 0.49,0.85 1.34,1.47 2.24,1.79 1.92,0.6 3.88,0.5 5.82,1.01 0.92,0.27 1.61,0.86 2.48,1.39 1.38,0.88 2.33,2.09 3.31,3.34 4.12,5.17 7.75,11.77 14.65,12.44 3.19,0.33 5.23,-1.11 7.97,-2.89"
         style="fill:#c21b32;fill-opacity:1;fill-rule:nonzero;stroke:none"
         id="path86" /><path
         d="m 2808.11,1154.56 c 16.1,16.04 27.77,37.41 45.02,53.03 -18.91,11.13 -42.36,22.76 -44.84,47.76 -0.18,1.68 2.63,3.56 3.29,3.23 26.28,-14.76 61.75,-15.92 80.73,10.95 15.28,21.71 21.92,56.93 51.78,58.98 -9.94,19.08 1.23,41.11 17.55,51.17 -5.51,2.06 -12.59,6.6 -18.78,5.43 -7.53,-1.27 -10.77,-11.49 -19.35,-13.05 13.5,45.51 -12.61,109.11 -62.77,107.99 -9.39,-0.19 -21.57,-7.75 -24.65,-18.04 -2.89,-9.69 -4.38,-21.9 2.6,-30.2 16.42,-19.65 28.27,-41.09 23.1,-67.01 11.71,10.07 22.49,24.96 22.09,40.8 -0.07,3.94 7.12,1.1 8.23,2.75 13.7,20.08 -8.7,32.52 -20.6,45.16 -3.3,3.44 5.08,8.73 6.15,8.38 43.01,-12.87 47.08,-65.86 28.65,-100.29 -4.9,6.13 -23.12,4.12 -29.27,6.21 20.11,-10.16 14.9,-11.59 14.05,-14.94 -1.51,-6.06 -19.56,-3.4 -23.06,-7.86 -6.04,-7.73 -10.58,-11.11 -11.05,-36.72 8.35,8.99 19.28,22.64 31.14,16.57 25.31,-13.01 -1.26,-56.8 -25.13,-64.05 -20.39,-6.15 -39.27,0.34 -51.9,18.1 -18.27,25.69 -5.02,56.81 -17.98,82.86 -10.81,-2.65 -8.35,-16.78 -13.99,-14.26 -19.87,9.23 -31.18,30.48 -45.58,48.3 -5.97,-2.16 -8.62,-7.67 -14.37,-7.38 -8.51,0.35 -24.58,2.97 -28.01,-1.31 -3.95,-4.96 -6.86,-41.09 28.29,-54.2 23.85,-8.88 42.76,-16.81 57.78,-35.43 -10.08,-0.84 -13.58,4.05 -21.81,4.34 -8.09,0.31 -13.23,-2.85 -19.35,-6 -5.84,-3 -12.71,-14.51 -11.55,-23.65 5.51,-43.75 56.88,-44.31 80.51,-71.99 4.06,-4.7 -6.2,-23.71 -15.88,-31.41 -8.23,-6.6 -28.01,9.93 -24.79,23.87 2.6,11.15 -24.37,18.63 -33.8,5.86 3.76,0.4 4.68,-2.07 4.34,-3.79 -1.68,-10.29 11.1,-10.72 10.68,-15.92 -0.57,-7.22 -6.82,3.03 -11.76,3.97 -10.89,2.15 -21.7,-1.65 -28.06,-10.35 -1.92,-2.62 -6.2,-6.86 -4.3,-11.3 8.32,4.07 12.65,-8.9 20.41,-4.88 4.71,2.41 8.56,6.59 14.26,5.14 2.25,-0.6 4.59,-3.69 2.53,-5 -15.13,-9.75 -27.27,-23.36 -16.3,-38.89 0.29,3.62 3.16,6.18 5.44,6.82 4.46,1.25 10.3,-1.78 14.6,-0.35 7.05,2.38 3.41,9.35 6.11,14.37 4.21,7.91 18.52,20.96 26.57,11.47 1.48,-1.74 0.33,-8.13 -4,-8.2 4.45,0.07 8.42,-4.27 12.2,-3.44 1.07,0.17 2.21,0.17 3.18,0.68 0.85,0.4 1.82,0.61 2.46,1.29 1.77,1.8 3.83,3.69 4.12,6.5 3.23,-0.25 7.35,-0.6 9.48,2.19 2.06,2.78 4.64,4.94 6.91,7.05"
         style="fill:#c21b32;fill-opacity:1;fill-rule:nonzero;stroke:none"
         id="path88" /><path
         d="m 2734.82,1470.89 c 28.17,7.91 59.47,22.56 66.21,53.85 8.54,-5.16 11.24,-16.84 11.33,-23.96 0.62,-39.24 -16.54,-73.13 -8.21,-114.22 0.93,-4.63 9.42,-19.2 5.56,-17.48 -4.68,2.11 -14.59,11.4 -20.06,7.09 -6.82,-5.34 -6.37,-13.81 -9.65,-11.82 -12.37,7.54 -25.46,18.64 -31.49,33.02 -2.32,5.42 -1.35,17.04 -2.88,15.38 -9.4,-10.28 -28.66,-12.44 -42.94,-14.63 3.26,2.91 6.17,14.61 5.65,17.01 -11.22,5.65 -27.35,-13.57 -27.07,-11.11 0.6,6.19 1.26,8.1 1.85,9.78 8.38,24.61 24.13,49.49 51.7,57.09"
         style="fill:#c21b32;fill-opacity:1;fill-rule:nonzero;stroke:none"
         id="path90" /><path
         d="m 2505.5,2123.64 c 1.18,0.52 1.8,1.34 1.65,1.51 -10.22,14.32 -22.52,12.9 -27.72,0.13 -3.53,-8.62 17.03,-5.85 26.07,-1.64 m 19.96,15.22 c 7.31,0.2 12.71,4.71 17.36,9.65 -0.37,-4.12 5.66,-9.94 3.44,-14.33 -2.79,-5.5 -9.84,-8.79 -11.22,-13.91 -2.91,-10.46 5.52,-20.68 -0.63,-31.07 -18.08,-30.59 -57.56,-20.46 -84.54,-27.26 1.88,3.33 -0.44,8.22 -2.48,9.6 11.98,-1.55 27.89,1.08 31.11,10.11 3.93,11.14 5.9,19.37 0.66,28.58 -8.63,15.18 -26.59,8.08 -40.08,2.81 -2.13,9.42 6.7,15.14 11.79,16.46 14.29,3.75 27.26,9.93 40.58,14.89 11.59,4.36 22.14,-5.82 34.01,-5.53"
         style="fill:#c21b32;fill-opacity:1;fill-rule:nonzero;stroke:none"
         id="path92" /><path
         d="m 3028.69,2129.09 c 1.14,0.65 -0.9,-0.88 0.05,0.07 -11.17,5.59 -25.69,12.91 -30.81,-2 -3.73,-10.93 21.08,-3.27 30.76,1.93 m 17.88,-47.88 c -3.85,-3.34 -10.29,-3.24 -14.66,-6.23 -2.68,-1.86 -5.09,-3.82 -7.86,-5.5 -1.29,-0.8 -5.18,-2.53 -6.6,-2.89 -3.92,-0.99 -3.07,-0.54 -6.7,-0.99 -2.16,-0.33 -3.19,-0.43 -5.36,-0.43 -2.16,0 -8.83,-0.19 -10.96,-0.15 -5.13,0.1 -6,-0.23 -11.14,0.58 -2.96,0.45 -5.77,1.25 -8.56,2.2 -1.87,0.61 -3.86,0.96 -5.82,1.01 0.23,2.06 0.47,4.29 2.11,5.64 2.13,1.84 2.55,0.18 5.67,0.47 0.14,0.02 4.42,-0.36 4.59,-0.36 0.71,0.02 1.58,0.05 2.34,0.17 1.35,0.19 2.48,0.45 3.7,1.04 1.53,0.73 3.21,1.18 4.61,2.29 0.47,0.43 1.04,0.83 1.54,1.31 1.01,0.97 2.41,1.46 3.33,2.62 2.94,3.57 5.13,7.04 5.44,11.64 0.31,3.41 0.56,6.93 -0.07,10.42 -0.1,0.54 -0.19,1.13 -0.24,1.64 -0.21,2.69 -1.54,5.22 -2.86,7.74 -7.83,14.93 -26.62,0.32 -39.49,1 0,2.85 -0.25,8.07 1.19,9.94 9.18,11.84 23.37,6.01 30.73,11.45 24.77,18.33 31.34,5.11 57.23,-2.06 7.76,-2.14 18.88,2.75 26.23,5.89 1.8,0.76 1.78,-10.93 0.86,-13.31 -3.07,-8.2 -11.57,-7.79 -14.55,-15.13 -4.35,-10.81 -5.04,-25.98 -16.44,-31.42"
         style="fill:#c21b32;fill-opacity:1;fill-rule:nonzero;stroke:none"
         id="path94" /><path
         d="m 2736.35,1530.79 c 4.42,-1.62 17.56,5.59 22.31,8.27 1.16,0.64 1.97,1.77 2.88,2.71 0.07,0.12 -0.09,0.39 -0.28,0.41 -3.76,0.8 -7.17,1.1 -10.86,1.49 -2.76,0.33 -4.82,2.2 -7.6,2.74 -0.7,0.17 -1.36,0.05 -2.12,-0.2 -1.07,-0.43 -1.42,-1.2 -2.3,-1.59 -1.32,-0.62 -3.21,-0.62 -4.39,-1.72 -1.23,-1.09 -2.3,-2.16 -2.66,-3.75 -0.52,-1.82 -0.09,-4.47 1.19,-6.05 0.97,-1.25 2.46,-1.8 3.83,-2.31 m 34.04,20.04 c 11.46,-2.71 23.95,-3.06 31.37,6.94 3.65,-15.51 -10.57,-17.48 -13.22,-25.08 -4,-11.54 -3.74,-23.09 -14.93,-29.04 -22.28,-11.88 -50.15,-26.14 -75.73,-28.21 0.22,3.13 -1.94,8.85 2.15,9.07 8.95,0.39 15.93,7.05 17.96,12.34 2.79,7.38 -0.4,25.25 -7.07,28.75 -7.7,4.06 -14.45,-2.19 -21.53,-5.27 -2.98,7.83 9.24,20.82 28.38,19.66 -0.49,0.06 9.52,10.92 9.05,10.59 12.51,8.61 26.23,4.28 43.57,0.25"
         style="fill:#c21b32;fill-opacity:1;fill-rule:nonzero;stroke:none"
         id="path96" /><path
         d="m 3117.95,1659.39 c -0.38,3.75 9.04,15 9.28,23.24 0.9,28.07 17.79,41.31 18.28,71.27 0.13,7.83 -32.27,15.16 -33.68,32.03 -0.67,8.34 -3.44,20.43 4.94,20.26 10.74,-0.2 21.29,1.71 28.89,8.41 33.87,29.82 5.27,70.57 1.18,106.56 -0.9,7.89 13.7,24.88 13.27,30.47 -2.35,30.51 -8,58.36 2.86,88.33 -8.52,-7.61 -11.06,-20.21 -18.21,-26.63 -3.48,-3.22 -5.19,3.87 -4.94,4.98 4.27,26.38 14.78,49.49 26.99,74.56 14.45,29.7 7.21,53.83 -19.52,62.71 -24.52,8.16 -48.17,-14.65 -50.82,-38.08 -2.46,-21.5 4.23,-47.27 9.32,-64.88 1.47,-5.16 0.6,-11.02 1.68,-15.5 4.38,17.8 4.87,36.35 4.59,55.15 -0.07,4.59 3.58,10.73 8.28,12.09 15.92,4.61 24.15,-6.9 23.09,-15.84 -3.5,-28.16 -9.18,-49.74 -15.92,-77.71 -7.68,-31.93 3.76,-63.61 7.12,-94.65 -12.26,7.19 -25.58,7.54 -30.3,-11.54 -2.58,-10.16 6.57,-20.8 9.39,-29.79 0.29,12.21 11.8,28.87 22.99,21.43 13.72,-9.12 14.22,-52.95 11.19,-58.73 -6.67,-12.72 -17.63,-21.77 -32.83,-17.28 -8.56,2.51 -5.09,15.19 -10.23,20.56 -27.32,28.24 -39.76,62.03 -42.08,101.03 -0.38,5.71 2.6,20.71 1.77,21.04 -35.72,14.73 -52.17,0.06 -67,-21.04 -2.55,6.39 -16.18,15.32 -17.27,13.33 -6.79,-12.58 -4.82,-35.42 5.33,-44.24 27.54,-23.83 54.83,-39.79 70.31,-73.85 -16.51,-2.17 -32.65,-6.93 -38.99,-24.21 -6.63,-18.04 -4.35,-43.11 14.69,-50.43 15.52,-5.96 42.18,0.7 48.03,-0.04 16.48,-2.17 34.94,-16.39 32.36,-31.98 -0.14,-0.8 -7.08,-37.2 -22.86,-28.18 -8.53,4.88 -3.73,24.84 -16.75,27.99 -17.53,4.24 -21.83,-20.24 -19.61,-18.15 5.59,5.34 9.47,-3.47 20.31,-9.45 -36.7,7.97 -25.3,-25.66 -23.98,-21.95 1.9,5.21 8.55,-0.24 21.7,0.66 0.47,0.02 -2.86,-2.77 -3.05,-3.03 -2.06,-3.39 -3.07,-5.03 -4.57,-8.61 -0.73,-1.66 -0.63,-3.51 -0.4,-5.25 0.17,-1.8 0.81,-3.38 1.77,-4.94 0.2,-0.34 0.53,-0.65 0.93,-0.84 0.17,-0.06 0.68,-0.9 0.78,-0.9 0.8,-0.11 -0.71,2.58 1.42,2.75 0.5,0.04 2.06,0.27 2.46,0.12 0.96,-0.35 2.22,-1 3.24,-1.25 0.95,-0.27 1.94,-0.45 2.98,-0.63 2.51,-0.31 3.39,-0.39 5.58,0.39 1.85,0.63 3.7,1.04 5.44,2.25 -2.34,-1.62 2.61,2.38 2.4,1.93 2.26,4.91 3.69,3.48 4.19,4.36 3.89,7.42 7.28,8.12 15.91,7.07 0.83,-0.1 2.42,-1.82 2.93,-2.6 0.62,-0.94 2.4,-5.58 2.09,-3.87 0.62,-3.46 2.75,-5.6 3.05,-8.9"
         style="fill:#c21b32;fill-opacity:1;fill-rule:nonzero;stroke:none"
         id="path98" /><path
         d="m 2853.29,1997.22 c -2.22,1.4 -2.96,4.82 -4.49,6.21 -0.48,0.52 -0.88,1.09 -1.38,1.64 -0.75,0.78 -1.11,1.87 -1.41,2.95 -1.52,5.23 -0.74,11.42 3.99,14.9 0.19,0.17 0.15,0.45 0.24,0.66 0.24,0.49 0.97,0.72 1.09,1.12 0.14,0.45 0.92,0.45 0.66,1.05 0.33,-0.15 0.35,0.3 0.47,0.42 0.95,1.23 1,3.4 -0.83,4 1.52,-0.12 3.06,-0.08 4.59,-0.43 0.6,-0.12 1.21,-0.28 1.78,-0.35 5.79,-0.76 13.09,-3.39 14.65,-9.21 l 2.03,-2.32 c 6.03,-14.02 3.97,-48.52 37.54,-56.8 17.49,-4.33 35.09,-9.74 53.02,-9.43 -4.33,-17.48 -4.28,-39.65 9.59,-52.3 -20.16,10.97 -33.6,8.65 -51.11,25.23 -7.83,7.4 -26.04,17.5 -34.85,16.02 -3.61,-0.63 5.02,11.64 -3.05,14.08 -5.3,1.58 -19.44,1.23 -21.86,-2.41 -11.62,-17.48 -23.85,-17.38 -27.94,-20.89 4.7,4.02 -19.02,23.36 10.46,33.84 2.81,1.04 3.85,7.45 0.38,9.07 -5.77,2.67 -10.58,-1.31 -16.28,-4.65 -6.53,-3.87 -8.02,10.33 -18.26,5.1 -2.13,30.31 24.88,32.91 40.97,14 1.14,-1.43 5.63,0.27 3.76,1.89 l -3.76,6.61"
         style="fill:#c21b32;fill-opacity:1;fill-rule:nonzero;stroke:none"
         id="path100" /><path
         d="m 3219.51,2129.14 c -4.16,-199.11 -8.23,-390.53 -66.71,-575.34 l -413.02,327.89 -414.72,-328.84 c -58.8,185.19 -62.88,377 -67.04,576.56 -0.38,18.96 -0.78,37.98 -1.23,57.02 h 963.98 c -0.45,-19.14 -0.86,-38.23 -1.26,-57.29 z m -179.7,-814.83 c -67.78,-104.08 -171.73,-191.09 -300.79,-251.89 -129.25,60.64 -233.38,147.67 -301.3,251.89 -11.36,17.46 -21.94,34.96 -31.87,52.54 l 333.91,264.69 332.37,-263.91 c -10.06,-17.83 -20.77,-35.6 -32.32,-53.32 z m -694.62,181.18 394.57,312.77 392.91,-311.96 c -9.9,-25.74 -20.94,-51.33 -33.33,-76.79 l -359.56,285.46 -361.14,-286.36 c -12.44,25.51 -23.54,51.13 -33.45,76.88 z m -107.96,710.04 0.23,-9.78 c 0.55,-22.3 1.01,-44.54 1.47,-66.73 6.03,-289.34 11.71,-562.64 182.79,-825.14 70.58,-108.32 178.93,-198.46 313.29,-260.66 l 4.02,-1.88 4.02,1.88 c 134.18,62.38 242.34,152.52 312.77,260.66 171.03,262.4 176.76,535.6 182.78,824.85 0.48,22.3 0.95,44.62 1.5,67.02 l 0.23,9.78 h -1003.1"
         style="fill:#231f20;fill-opacity:1;fill-rule:nonzero;stroke:none"
         id="path102" /><path
         d="m 1075.93,818.09 h 129.56 v -34.02 h -92.12 v -36.218 h 81.18 v -34.043 h -81.18 v -65.868 h -37.44 V 818.09"
         style="fill:#231f20;fill-opacity:1;fill-rule:nonzero;stroke:none"
         id="path104" /><path
         d="m 1309,719.16 -22.61,55.18 -22.6,-55.18 z m -39.37,100.149 h 34.51 l 72.92,-171.368 h -39.13 l -15.56,38.168 h -71.95 l -15.56,-38.168 h -38.16 l 72.93,171.368"
         style="fill:#231f20;fill-opacity:1;fill-rule:nonzero;stroke:none"
         id="path106" /><path
         d="m 1375.3,732.531 v 0.489 c 0,48.371 36.46,87.992 88.72,87.992 32.09,0 51.29,-10.692 67.09,-26.25 l -23.82,-27.473 c -13.12,11.91 -26.49,19.211 -43.51,19.211 -28.69,0 -49.34,-23.828 -49.34,-53 v -0.48 c 0,-29.168 20.18,-53.481 49.34,-53.481 19.45,0 31.35,7.781 44.72,19.941 l 23.83,-24.07 c -17.51,-18.719 -36.95,-30.39 -69.77,-30.39 -50.07,0 -87.26,38.66 -87.26,87.511"
         style="fill:#231f20;fill-opacity:1;fill-rule:nonzero;stroke:none"
         id="path108" /><path
         d="m 1554.89,720.859 v 97.231 h 37.43 v -96.25 c 0,-27.719 13.86,-42.051 36.71,-42.051 22.84,0 36.7,13.852 36.7,40.832 v 97.469 h 37.43 v -96.008 c 0,-51.531 -28.93,-76.812 -74.62,-76.812 -45.7,0 -73.65,25.519 -73.65,75.589"
         style="fill:#231f20;fill-opacity:1;fill-rule:nonzero;stroke:none"
         id="path110" /><path
         d="m 1741.51,818.09 h 37.43 V 681.98 h 84.84 V 647.941 H 1741.51 V 818.09"
         style="fill:#231f20;fill-opacity:1;fill-rule:nonzero;stroke:none"
         id="path112" /><path
         d="m 1902.62,783.582 h -51.77 v 34.508 h 140.98 v -34.508 h -51.77 V 647.941 h -37.44 v 135.641"
         style="fill:#231f20;fill-opacity:1;fill-rule:nonzero;stroke:none"
         id="path114" /><path
         d="m 2063.74,715.031 -65.38,103.059 h 43.75 l 40.59,-68.301 41.32,68.301 h 42.54 l -65.39,-102.328 v -67.821 h -37.43 v 67.09"
         style="fill:#231f20;fill-opacity:1;fill-rule:nonzero;stroke:none"
         id="path116" /><path
         d="m 2377.96,732.531 v 0.489 c 0,29.171 -21.39,53.48 -51.53,53.48 -30.14,0 -51.04,-23.828 -51.04,-53 v -0.48 c 0,-29.168 21.38,-53.481 51.52,-53.481 30.15,0 51.05,23.82 51.05,52.992 z m -141.71,0 v 0.489 c 0,48.371 38.16,87.992 90.66,87.992 52.51,0 90.19,-39.133 90.19,-87.512 v -0.48 c 0,-48.379 -38.17,-88 -90.67,-88 -52.51,0 -90.18,39.14 -90.18,87.511"
         style="fill:#231f20;fill-opacity:1;fill-rule:nonzero;stroke:none"
         id="path118" /><path
         d="m 2445.71,818.09 h 129.56 v -34.02 h -92.13 v -36.218 h 81.18 v -34.043 h -81.18 v -65.868 h -37.43 V 818.09"
         style="fill:#231f20;fill-opacity:1;fill-rule:nonzero;stroke:none"
         id="path120" /><path
         d="m 2678.5,818.09 h 128.34 v -33.301 h -91.15 v -34.508 h 80.21 V 716.98 h -80.21 v -35.742 h 92.37 V 647.941 H 2678.5 V 818.09"
         style="fill:#231f20;fill-opacity:1;fill-rule:nonzero;stroke:none"
         id="path122" /><path
         d="m 2841.55,818.09 h 34.52 l 79.72,-104.758 V 818.09 h 36.96 V 647.941 h -31.85 l -82.4,108.168 V 647.941 h -36.95 V 818.09"
         style="fill:#231f20;fill-opacity:1;fill-rule:nonzero;stroke:none"
         id="path124" /><path
         d="m 3021.37,732.531 v 0.489 c 0,48.371 37.67,87.992 89.21,87.992 30.62,0 49.1,-8.262 66.84,-23.332 l -23.57,-28.45 c -13.14,10.95 -24.8,17.27 -44.48,17.27 -27.23,0 -48.86,-24.07 -48.86,-53 v -0.48 c 0,-31.11 21.39,-53.961 51.52,-53.961 13.62,0 25.77,3.402 35.26,10.203 v 24.308 h -37.69 v 32.328 h 73.9 v -73.886 c -17.5,-14.832 -41.57,-26.992 -72.68,-26.992 -52.99,0 -89.45,37.199 -89.45,87.511"
         style="fill:#231f20;fill-opacity:1;fill-rule:nonzero;stroke:none"
         id="path126" /><path
         d="m 3221.36,818.09 h 37.43 V 647.941 h -37.43 V 818.09"
         style="fill:#231f20;fill-opacity:1;fill-rule:nonzero;stroke:none"
         id="path128" /><path
         d="m 3301.55,818.09 h 34.52 l 79.72,-104.758 V 818.09 h 36.96 V 647.941 h -31.85 l -82.4,108.168 V 647.941 h -36.95 V 818.09"
         style="fill:#231f20;fill-opacity:1;fill-rule:nonzero;stroke:none"
         id="path130" /><path
         d="m 3493.76,818.09 h 128.34 v -33.301 h -91.15 v -34.508 h 80.21 V 716.98 h -80.21 v -35.742 h 92.37 V 647.941 H 3493.76 V 818.09"
         style="fill:#231f20;fill-opacity:1;fill-rule:nonzero;stroke:none"
         id="path132" /><path
         d="m 3656.82,818.09 h 128.34 v -33.301 h -91.15 v -34.508 h 80.21 V 716.98 h -80.21 v -35.742 h 92.37 V 647.941 H 3656.82 V 818.09"
         style="fill:#231f20;fill-opacity:1;fill-rule:nonzero;stroke:none"
         id="path134" /><path
         d="m 3895.23,735.449 c 18.23,0 28.68,9.723 28.68,24.071 V 760 c 0,16.039 -11.18,24.309 -29.42,24.309 h -37.18 v -48.86 z m -75.36,82.641 h 77.79 c 21.63,0 38.41,-6.07 49.58,-17.258 9.48,-9.48 14.59,-22.852 14.59,-38.883 v -0.488 c 0,-27.469 -14.83,-44.731 -36.47,-52.75 l 41.57,-60.77 h -43.75 l -36.46,54.45 h -29.41 v -54.45 h -37.44 V 818.09"
         style="fill:#231f20;fill-opacity:1;fill-rule:nonzero;stroke:none"
         id="path136" /><path
         d="m 3997.5,818.09 h 37.43 V 647.941 H 3997.5 V 818.09"
         style="fill:#231f20;fill-opacity:1;fill-rule:nonzero;stroke:none"
         id="path138" /><path
         d="m 4072.83,818.09 h 34.51 l 79.73,-104.758 V 818.09 h 36.95 V 647.941 h -31.84 l -82.4,108.168 V 647.941 h -36.95 V 818.09"
         style="fill:#231f20;fill-opacity:1;fill-rule:nonzero;stroke:none"
         id="path140" /><path
         d="m 4252.66,732.531 v 0.489 c 0,48.371 37.67,87.992 89.21,87.992 30.62,0 49.1,-8.262 66.84,-23.332 l -23.57,-28.45 c -13.14,10.95 -24.8,17.27 -44.48,17.27 -27.23,0 -48.86,-24.07 -48.86,-53 v -0.48 c 0,-31.11 21.38,-53.961 51.52,-53.961 13.61,0 25.77,3.402 35.26,10.203 v 24.308 h -37.69 v 32.328 h 73.9 v -73.886 c -17.5,-14.832 -41.57,-26.992 -72.68,-26.992 -52.99,0 -89.45,37.199 -89.45,87.511"
         style="fill:#231f20;fill-opacity:1;fill-rule:nonzero;stroke:none"
         id="path142" /></g></g></svg>
