<?xml version="1.0" encoding="UTF-8" standalone="no"?>
<!-- Created with Inkscape (http://www.inkscape.org/) -->

<svg
   width="91.369278mm"
   height="100.07245mm"
   viewBox="0 0 91.369278 100.07245"
   version="1.1"
   id="svg1"
   xml:space="preserve"
   xmlns:inkscape="http://www.inkscape.org/namespaces/inkscape"
   xmlns:sodipodi="http://sodipodi.sourceforge.net/DTD/sodipodi-0.dtd"
   xmlns="http://www.w3.org/2000/svg"
   xmlns:svg="http://www.w3.org/2000/svg"><sodipodi:namedview
     id="namedview1"
     pagecolor="#ffffff"
     bordercolor="#000000"
     borderopacity="0.25"
     inkscape:showpageshadow="2"
     inkscape:pageopacity="0.0"
     inkscape:pagecheckerboard="0"
     inkscape:deskcolor="#d1d1d1"
     inkscape:document-units="mm"
     inkscape:zoom="2.043487"
     inkscape:cx="265.47759"
     inkscape:cy="420.11522"
     inkscape:window-width="1920"
     inkscape:window-height="1008"
     inkscape:window-x="0"
     inkscape:window-y="0"
     inkscape:window-maximized="1"
     inkscape:current-layer="layer1" /><defs
     id="defs1" /><g
     inkscape:label="Layer 1"
     inkscape:groupmode="layer"
     id="layer1"
     transform="translate(-46.725167,-85.063749)"><path
       style="fill:#ffffff;fill-opacity:1;stroke:#000000;stroke-width:1.665;stroke-dasharray:none;stroke-opacity:1"
       d="m 56.821585,101.39762 c 0,0 -7.981994,7.73833 -9.045367,17.42686 -0.7897,7.19506 0.597379,14.1043 3.4918,21.88036 5.056372,13.58429 -4.269962,25.54772 7.27236,40.12731 5.21325,6.58507 53.306592,1.77794 53.306592,1.77794 0,0 23.51702,-2.33019 25.38774,-45.63269 0.83673,-19.36826 -18.14286,-36.77606 -18.14286,-36.77606 0,0 2.70431,-10.923151 -5.9109,-13.189553 -8.90775,-2.343359 -12.35495,5.645131 -12.35495,5.645131 0,0 -6.332903,-2.897675 -11.389536,-2.900407 -7.178174,-0.0039 -14.569997,1.916813 -14.569997,1.916813 0,0 -5.639688,-8.432057 -13.307689,-4.943199 -7.931217,3.608619 -4.737193,14.667495 -4.737193,14.667495 z"
       id="path1"
       sodipodi:nodetypes="cssscscscscsc"
       inkscape:export-filename="kuma.svg"
       inkscape:export-xdpi="96"
       inkscape:export-ydpi="96" /><path
       style="fill:none;stroke:#000000;stroke-width:1.665;stroke-dasharray:none;stroke-opacity:1"
       d="m 64.133372,145.03124 c 0,0 7.198243,1.14324 6.994141,5.28411 -0.194513,3.94631 -7.565826,3.75686 -7.565826,3.75686"
       id="path2"
       sodipodi:nodetypes="csc" /><path
       style="fill:none;stroke:#000000;stroke-width:1.665;stroke-dasharray:none;stroke-opacity:1"
       d="m 81.618975,144.4711 c 0,0 -8.391287,1.38524 -8.185218,5.65216 0.26481,5.48322 10.176827,4.31883 10.176827,4.31883"
       id="path3"
       sodipodi:nodetypes="csc" /><path
       style="fill:none;stroke:#000000;stroke-width:1.665;stroke-dasharray:none;stroke-opacity:1"
       d="m 70.610969,174.31405 c 0,0 3.909069,1.39433 3.036308,6.02454 -0.425798,2.25896 -4.869653,2.97585 -4.869653,2.97585"
       id="path4"
       sodipodi:nodetypes="csc" /><path
       style="fill:none;stroke:#000000;stroke-width:1.665;stroke-dasharray:none;stroke-opacity:1"
       d="m 92.183756,173.19059 c 0,0 -5.066739,1.36672 -5.125855,6.99812 -0.03085,2.93852 4.211397,3.30436 4.211397,3.30436"
       id="path5"
       sodipodi:nodetypes="csc" /><ellipse
       style="fill:#000000;fill-opacity:1;stroke:#000000;stroke-width:1.665;stroke-dasharray:none;stroke-opacity:1"
       id="path6"
       cx="60.075886"
       cy="121.12951"
       rx="1.5151362"
       ry="1.1578295" /><ellipse
       style="fill:#000000;fill-opacity:1;stroke:#000000;stroke-width:1.665;stroke-dasharray:none;stroke-opacity:1"
       id="path7"
       cx="89.748566"
       cy="121.08433"
       rx="1.36812"
       ry="0.95459008" /><ellipse
       style="fill:#000000;fill-opacity:1;stroke:#000000;stroke-width:1.98427;stroke-dasharray:none;stroke-opacity:1"
       id="path8"
       cx="72.374657"
       cy="129.49872"
       rx="2.9092216"
       ry="1.679516" /><path
       style="fill:#f9ddd7;fill-opacity:1;stroke:#000000;stroke-width:0.965;stroke-dasharray:none;stroke-opacity:1"
       d="m 61.402531,98.049681 c -1.921419,-0.341613 -0.395168,-4.286709 0.840843,-4.981679 2.220629,-1.24859 5.925962,-1.128562 6.690739,0.887781 0.24875,0.655832 -1.767548,5.118697 -7.531582,4.093898 z"
       id="path9"
       sodipodi:nodetypes="ssss" /><path
       style="fill:#f9ddd7;fill-opacity:1;stroke:#000000;stroke-width:0.965;stroke-dasharray:none;stroke-opacity:1"
       d="m 105.8502,95.541179 c -0.58562,-2.004769 1.48114,-3.188905 4.50626,-2.648197 2.8582,0.510873 3.89818,3.427939 3.1427,4.853168 -0.96335,1.817362 -6.68932,1.080211 -7.64896,-2.204971 z"
       id="path9-6"
       sodipodi:nodetypes="ssss" /></g></svg>
