<?xml version="1.0" encoding="UTF-8" standalone="no"?>
<!-- Created with Inkscape (http://www.inkscape.org/) -->

<svg
   width="54.17979mm"
   height="62.66328mm"
   viewBox="0 0 54.17979 62.66328"
   version="1.1"
   id="svg1"
   xml:space="preserve"
   xmlns="http://www.w3.org/2000/svg"
   xmlns:svg="http://www.w3.org/2000/svg"><defs
     id="defs1" /><g
     id="layer1"
     transform="translate(-28.184601,-71.308134)"><path
       style="fill:#def4f6;fill-opacity:1;stroke:#c6efef;stroke-width:1.365;stroke-dasharray:none;stroke-opacity:1"
       d="m 29.199451,87.182438 5.600163,-3.092334 12.765227,6.603942 4.32766,8.795705 3.134934,-1.877589 -6.04375,-7.191322 0.220546,-14.945392 5.535446,-3.372924 5.969918,3.476207 0.06227,15.096273 -4.362431,6.807255 2.863829,2.128782 3.828571,-8.778565 12.831802,-6.982717 5.676984,3.425288 -0.0013,7.112648 -14.949799,7.632215 -6.326957,-0.97689 0.131847,3.27407 6.761112,-0.53325 14.075341,7.28157 0.359981,5.94209 -5.303625,3.95331 -14.003563,-8.34932 -2.844093,-6.85397 -2.687034,1.64961 4.389389,7.59641 0.152702,13.87727 -5.595419,4.2567 -5.476348,-3.55536 -0.480558,-16.08511 4.908251,-6.03606 -3.234589,-1.54921 -3.614944,8.03034 -12.415102,6.38079 -5.826598,-3.01698 -0.250616,-5.94267 13.437936,-7.70043 7.966644,0.76539 0.02751,-3.71512 -9.788689,-0.21952 -12.135083,-7.072498 z"
       id="path1" /></g></svg>
