<?xml version="1.0" encoding="UTF-8" standalone="no"?>
<!-- Created with Inkscape (http://www.inkscape.org/) -->

<svg
   width="54.684437mm"
   height="59.401722mm"
   viewBox="0 0 54.684437 59.401722"
   version="1.1"
   id="svg1"
   xml:space="preserve"
   xmlns="http://www.w3.org/2000/svg"
   xmlns:svg="http://www.w3.org/2000/svg"><defs
     id="defs1" /><g
     id="layer1"
     transform="translate(-136.00904,-167.36726)"><path
       style="fill:#def4f6;fill-opacity:1;stroke:#c6efef;stroke-width:1.365;stroke-dasharray:none;stroke-opacity:1"
       d="m 136.89507,185.16473 4.43893,12.82381 7.79895,-0.29689 -0.36528,3.5881 -7.39445,-0.25896 -3.85267,12.69271 12.16115,2.40802 4.8686,-6.5435 3.45912,1.45198 -4.02915,6.76016 8.41411,8.07313 9.00729,-7.17052 -3.6067,-8.05886 3.2885,-1.31812 0.98957,4.16471 14.60456,0.37394 -5.48897,-12.93386 -5.39251,0.38278 0.68851,-3.31976 6.50442,0.90742 6.71257,-15.4329 -15.31388,-1.82274 -4.0065,6.94435 -2.63376,-2.80172 3.60407,-5.88817 -8.5159,-11.43849 -10.21378,11.62922 4.05987,7.11463 c 0,0 -2.38168,1.328 -2.58065,0.62899 -0.19896,-0.69901 -3.32904,-6.29868 -3.32904,-6.29868 z"
       id="path49" /></g></svg>
