<?xml version="1.0" encoding="UTF-8" standalone="no"?>
<!-- Created with Inkscape (http://www.inkscape.org/) -->

<svg
   width="57.68895mm"
   height="68.246033mm"
   viewBox="0 0 57.68895 68.246033"
   version="1.1"
   id="svg1"
   xml:space="preserve"
   xmlns="http://www.w3.org/2000/svg"
   xmlns:svg="http://www.w3.org/2000/svg"><defs
     id="defs1" /><g
     id="layer1"
     transform="translate(-25.830887,-139.37652)"><path
       style="fill:#def4f6;fill-opacity:1;stroke:#c6efef;stroke-width:1.365;stroke-dasharray:none;stroke-opacity:1"
       d="m 52.164813,152.87655 -5.324348,-2.98084 0.523137,-6.01844 7.384864,-3.73296 7.905793,4.15381 -0.781082,7.13875 -4.640625,2.6391 z"
       id="path38" /><path
       style="fill:#def4f6;fill-opacity:1;stroke:#c6efef;stroke-width:1.365;stroke-dasharray:none;stroke-opacity:1"
       d="m 69.77009,162.14442 -0.501751,-5.63564 6.726767,-4.30897 6.814526,4.04519 -0.690965,9.87584 -4.879377,2.17297 -4.742473,-1.55036 z"
       id="path39" /><path
       style="fill:#def4f6;fill-opacity:1;stroke:#c6efef;stroke-width:1.365;stroke-dasharray:none;stroke-opacity:1"
       d="m 48.400707,198.91201 0.578515,4.77713 7.014874,3.13498 6.641271,-5.63372 -0.08627,-2.8503 -3.406765,-4.23543 -7.991221,1.01243 z"
       id="path41" /><path
       style="fill:#def4f6;fill-opacity:1;stroke:#c6efef;stroke-width:1.365;stroke-dasharray:none;stroke-opacity:1"
       d="m 34.321313,180.58857 -2.559854,-1.34585 -2.873018,1.33185 -0.389316,3.96205 -1.474856,1.5715 -0.06762,3.68635 6.764718,4.23242 5.006909,-2.56211 0.939268,-5.53129 z"
       id="path42" /><path
       style="fill:#def4f6;fill-opacity:1;stroke:#c6efef;stroke-width:1.365;stroke-dasharray:none;stroke-opacity:1"
       d="m 35.350111,165.53301 -4.567894,2.5981 -4.2633,-2.85005 0.123024,-8.14386 6.487485,-4.42322 5.06068,1.96587 0.488648,6.25769 z"
       id="path43" /><path
       style="fill:#def4f6;fill-opacity:1;stroke:#c6efef;stroke-width:1.365;stroke-dasharray:none;stroke-opacity:1"
       d="m 75.257593,181.8167 4.853517,3.24427 0.261109,6.67332 -5.884966,2.64593 -4.487648,-1.56622 -1.08958,-4.82438 4.119086,-6.25479 z"
       id="path44" /><path
       style="fill:#def4f6;fill-opacity:1;stroke:#c6efef;stroke-width:1.365;stroke-dasharray:none;stroke-opacity:1"
       d="m 35.28279,162.47294 c 0.278223,1.17347 -0.423538,24.44873 -0.423538,24.44873 L 54.344829,198.63165 73.820302,188.0386 73.361692,163.40466 54.64084,152.47571 Z"
       id="path37" /></g></svg>
