<?xml version="1.0" encoding="UTF-8" standalone="no"?>
<!-- Created with Inkscape (http://www.inkscape.org/) -->

<svg
   width="79.567482mm"
   height="87.942345mm"
   viewBox="0 0 79.567482 87.942345"
   version="1.1"
   id="svg1"
   xml:space="preserve"
   xmlns="http://www.w3.org/2000/svg"
   xmlns:svg="http://www.w3.org/2000/svg"><defs
     id="defs1" /><g
     id="layer1"
     transform="translate(-79.58732,-89.628751)"><path
       style="fill:#f2daac;fill-opacity:1;stroke:#000000;stroke-width:1.665;stroke-dasharray:none"
       d="m 83.500396,115.53897 c 0,0 -1.563318,-1.71723 -1.206976,-4.28045 0.354088,-2.54701 2.663626,-3.13668 2.663626,-3.13668 0,0 -0.112482,-3.72022 2.25615,-5.64611 2.625292,-2.13458 5.217871,-0.96173 5.217871,-0.96173 0,0 -0.722354,-3.477136 2.177944,-5.42627 2.615921,-1.758019 5.526719,0.05567 5.526719,0.05567 0,0 0.15155,-4.065632 4.42881,-4.812636 3.37957,-0.590227 5.52721,1.666664 5.52721,1.666664 0,0 1.11203,-2.720537 3.46211,-2.526562 2.70586,0.223341 3.8148,2.671275 3.8148,2.671275 0,0 1.38621,-2.786902 3.40869,-2.288004 2.13287,0.52613 2.45784,3.483918 2.45784,3.483918 0,0 1.81583,-3.20733 5.66152,-2.843476 1.67669,0.158637 2.76657,3.667958 2.76657,3.667958 0,0 2.66633,-1.902104 4.84491,-0.518779 2.55061,1.619546 1.65122,5.730492 1.65122,5.730492 0,0 3.05061,-1.582551 4.25048,-0.784956 2.87014,1.907876 2.10849,5.131326 2.10849,5.131326 0,0 3.77406,-1.07032 4.93022,1.57846 0.71376,1.63522 -0.88858,4.66001 -0.88858,4.66001 0,0 3.69987,-1.12761 4.93382,1.65046 1.18045,2.65764 -1.52275,5.00285 -1.52275,5.00285 0,0 3.61117,0.51806 4.1045,3.89671 0.22063,1.511 -1.79008,4.21685 -1.79008,4.21685 0,0 2.82947,2.61429 2.99523,4.37342 0.15705,1.66666 -2.01381,4.60069 -2.01381,4.60069 0,0 3.33767,2.4274 3.03521,5.30821 -0.32315,3.07788 -3.1929,3.54259 -3.1929,3.54259 0,0 2.78938,1.20985 2.42871,3.71348 -0.233,1.61737 -3.06915,2.02102 -3.06915,2.02102 0,0 2.70196,1.81891 1.93025,4.07191 -0.45829,1.33799 -1.97953,2.3132 -1.97953,2.3132 0,0 2.38133,2.56422 1.75379,3.9033 -0.85068,1.81525 -5.46116,2.51891 -5.46116,2.51891 0,0 0.78188,3.47911 -0.18386,4.72464 -0.97021,1.2513 -4.55093,1.36109 -4.55093,1.36109 0,0 0.06,2.2567 -1.87102,3.18711 -0.76104,0.36668 -2.48358,-0.50454 -2.48358,-0.50454 0,0 -1.71932,2.44079 -3.29324,2.88671 -1.70464,0.48296 -4.93221,-0.79256 -4.93221,-0.79256 0,0 -0.61389,1.91402 -3.52159,2.32549 -1.43705,0.20336 -3.01139,-1.12861 -3.01139,-1.12861 0,0 -2.84064,2.22475 -4.54782,2.45203 -5.03782,0.67071 -16.37015,-1.53006 -24.905226,-0.55256 -4.148792,0.47515 -8.27234,-8.45651 -8.27234,-8.45651 0,0 -1.980116,-0.46134 -2.898365,-2.72308 -0.857945,-2.11315 -0.526124,-3.91418 -0.526124,-3.91418 0,0 -1.661664,-1.86433 -1.795469,-3.68195 -0.15135,-2.05595 1.990293,-2.72052 1.990293,-2.72052 0,0 -2.516358,-0.85714 -2.512274,-3.28609 0.0035,-2.08088 1.910254,-3.19496 1.910254,-3.19496 0,0 -1.552125,-1.17883 -1.474261,-2.71504 0.07918,-1.56212 2.034899,-2.66841 2.034899,-2.66841 0,0 -1.954685,-0.46108 -2.59975,-2.73452 -0.465287,-1.63983 0.517906,-3.46247 0.517906,-3.46247 0,0 -2.138171,-1.54517 -2.423303,-3.80354 -0.327129,-2.59101 1.19112,-3.95139 1.19112,-3.95139 0,0 -2.23313,-1.24544 -2.130774,-4.06787 0.12448,-3.43251 2.171897,-2.30703 2.171897,-2.30703 0,0 -2.303804,-1.87205 -1.985338,-3.7282 0.348856,-2.03325 0.930957,-2.95143 2.890741,-3.09676 z"
       id="path1" /><path
       style="fill:none;fill-opacity:1;stroke:#000000;stroke-width:1.665;stroke-dasharray:none"
       d="m 99.829001,167.99624 c 0,0 4.359329,0.51789 4.362389,3.99759 0.002,2.65978 -2.84551,3.40471 -2.84551,3.40471"
       id="path2" /><path
       style="fill:none;fill-opacity:1;stroke:#000000;stroke-width:1.665;stroke-dasharray:none"
       d="m 118.6068,168.06396 c 0,0 -5.33773,-0.0821 -6.54399,4.5631 -0.29488,1.13559 1.08384,3.05514 1.08384,3.05514"
       id="path3" /><path
       style="fill:none;fill-opacity:1;stroke:#000000;stroke-width:1.665;stroke-dasharray:none"
       d="m 94.17878,141.69193 c 0,0 7.34917,0.82118 6.64887,5.20696 -0.69462,4.35022 -9.359449,1.66648 -9.359449,1.66648"
       id="path4" /><path
       style="fill:none;fill-opacity:1;stroke:#000000;stroke-width:1.665;stroke-dasharray:none"
       d="m 106.83767,141.16642 c 0,0 -5.95659,3.42238 -5.24504,5.98963 1.53415,5.53521 11.00244,1.17092 11.00244,1.17092"
       id="path5" /><ellipse
       style="fill:none;fill-opacity:1;stroke:#7f634d;stroke-width:1.665;stroke-dasharray:none;stroke-opacity:1"
       id="path6"
       cx="90.193016"
       cy="124.84705"
       rx="1.2739564"
       ry="0.56598902" /><ellipse
       style="fill:none;fill-opacity:1;stroke:#7e6345;stroke-width:1.665;stroke-dasharray:none;stroke-opacity:1"
       id="path7"
       cx="115.6353"
       cy="125.15147"
       rx="1.4574827"
       ry="0.67415202" /><ellipse
       style="fill:#fee3e0;fill-opacity:1;stroke:#7f634d;stroke-width:1.90415;stroke-dasharray:none;stroke-opacity:1"
       id="path8"
       cx="101.61196"
       cy="129.07468"
       rx="5.4702587"
       ry="2.0854988" /></g></svg>
